<?xml version="1.0" standalone="no"?>
<!DOCTYPE svg PUBLIC "-//W3C//DTD SVG 1.1//EN" "http://www.w3.org/Graphics/SVG/1.1/DTD/svg11.dtd" >
<svg xmlns="http://www.w3.org/2000/svg">
<metadata>Generated by IcoMoon</metadata>
<defs>
<font id="icomoon" horiz-adv-x="512">
<font-face units-per-em="512" ascent="480" descent="-32" />
<missing-glyph horiz-adv-x="512" />
<glyph unicode="&#x20;" d="" horiz-adv-x="256" />
<glyph unicode="&#xe600;" d="M133.792 372.96c-13.728 0-23.296-1.248-28.72-2.496v-183.456c5.424-1.248 14.56-1.248 22.064-1.248 57.808-0.416 95.664 31.2 95.664 98.176 0.016 58.24-34.096 89.024-89.008 89.024zM464 480h-416c-26.512 0-48-21.488-48-48v-416c0-26.512 21.488-48 48-48h416c26.496 0 48 21.488 48 48v416c0 26.512-21.504 48-48 48zM77.248 42.912c-5.888-5.36-15.296-8.080-26.8-8.080-6.24 0-10.992 0.336-14.592 0.784v58.288c4.832 0.704 10.816 1.216 17.232 1.216 11.072 0 18.64-2.288 24.080-6.848 5.808-4.672 9.328-11.776 9.328-21.792-0.016-10.656-3.632-18.48-9.248-23.568zM133.216 53.808h-28.656c0.272-7.728 6.24-11.072 13.184-11.072 5.008 0 8.528 0.8 11.872 1.936l1.584-7.392c-3.68-1.584-8.784-2.72-14.944-2.72-13.888 0-22.064 8.512-22.064 21.632 0 11.856 7.2 23.008 20.912 23.008 13.888 0 18.464-11.424 18.464-20.832 0-2.016-0.176-3.584-0.352-4.56zM154.544 35.44h-10.816v62.4h10.816v-62.4zM190.432 70.16h-10.272v-18.912c0-5.264 1.408-7.904 5.536-7.904 1.936 0 2.992 0.096 4.224 0.432l0.176-8.176c-1.584-0.608-4.48-1.136-7.824-1.136-4.048 0-7.296 1.312-9.328 3.52-2.368 2.464-3.424 6.416-3.424 12.048v20.128h-6.064v8.080h6.064v8l10.64 2.992v-10.992h10.288v-8.080zM224.224 35.44l-0.784 4.752h-0.272c-2.544-3.344-7.024-5.712-12.656-5.712-8.608 0-13.44 6.256-13.44 12.752 0 10.72 9.584 16.256 25.392 16.176v0.704c0 2.816-1.136 7.472-8.688 7.472-4.224 0-8.624-1.312-11.52-3.168l-2.112 7.024c3.168 1.936 8.704 3.776 15.472 3.776 13.712 0 17.664-8.704 17.664-18.112v-15.376c0-3.856 0.176-7.648 0.704-10.288h-9.76zM294.064 38.16c-3.776-1.408-11.152-3.328-18.976-3.328-10.032 0-17.68 2.544-23.312 7.904-5.264 5.008-8.256 12.832-8.256 21.792 0.080 18.816 13.36 30.768 32.976 30.768 7.28 0 13.008-1.504 15.712-2.816l-2.368-8.704c-3.248 1.488-7.2 2.544-13.44 2.544-12.672 0-21.536-7.472-21.536-21.264 0-13.456 8.272-21.456 20.576-21.456 3.952 0 6.768 0.528 8.176 1.136v14.864l-0.208 8.512h10.656v-29.952zM330.432 68.848c-0.976 0.176-1.936 0.256-3.248 0.256-5.088 0-8.688-3.248-9.664-8.176-0.192-0.976-0.288-2.112-0.288-3.248v-22.24h-10.816v29.008c0 5.808-0.080 10.032-0.336 13.792h9.312l0.432-8.080h0.288c2.096 5.968 7.104 9.040 11.776 9.040 1.024 0 1.664-0.080 2.528-0.272v-10.080zM362.56 35.44l-0.784 4.752h-0.288c-2.528-3.344-7.024-5.712-12.656-5.712-8.592 0-13.44 6.256-13.44 12.752 0 10.72 9.584 16.256 25.408 16.176v0.704c0 2.816-1.152 7.472-8.72 7.472-4.224 0-8.592-1.312-11.504-3.168l-2.112 7.024c3.168 1.936 8.704 3.776 15.472 3.776 13.696 0 17.664-8.704 17.664-18.112v-15.376c0-3.856 0.16-7.648 0.688-10.288h-9.728zM262.56 173.68c-2.96 2.864-5.728 5.92-8.384 9.104-3.376-3.696-6.88-7.2-10.544-10.352-29.552-24.544-74.896-36.192-129.792-36.192-32.88 0-56.576 2.080-71.984 4.16v274.992c23.296 3.744 53.664 6.24 85.296 6.24 53.664 0 88.608-9.984 115.232-29.952 5.088-3.792 9.728-8.128 14.128-12.72 26.512 32.704 67.472 51.648 118.448 51.648 36.208 0 64.064-7.072 77.792-13.312l-13.312-51.168c-15.392 7.056-34.112 12.064-64.896 12.064-52.848 0-84.944-37.664-84.944-98.816 0-58.256 36.608-91.936 88.608-91.936 14.144 0 25.776 1.664 30.784 3.728v59.072l0.56 49.504h60.592v-147.68c-19.568-6.656-56.576-15.792-93.616-15.792-51.152-0.016-88.176 12.864-113.968 37.408zM407.536 34.464c-5.36 0-9.84 2.288-12.032 5.712h-0.192v-22.16h-10.816v45.984c0 5.632-0.176 10.208-0.336 14.24h9.504l0.512-6.576h0.176c3.152 4.832 8.192 7.552 14.688 7.552 9.84 0 18-8.432 18-21.792-0.016-15.488-9.76-22.96-19.504-22.96zM476.16 35.44h-10.816v24.080c0 6.16-2.288 10.912-8.288 10.912-4.224 0-7.184-2.816-8.432-6.064-0.336-0.976-0.432-2.112-0.432-3.264v-25.664h-10.816v62.4h10.816v-25.408h0.192c1.312 2.032 3.152 3.68 5.36 4.848 2.208 1.216 4.736 1.92 7.472 1.92 7.296 0 14.96-4.832 14.96-18.544v-25.216zM207.792 48.352c0-4.224 2.72-6.16 6.16-6.16 4.384 0 7.472 2.816 8.528 5.888 0.272 0.8 0.272 1.584 0.272 2.368v5.888c-7.664 0.096-14.96-1.472-14.96-7.984zM346.128 48.352c0-4.224 2.72-6.16 6.16-6.16 4.4 0 7.472 2.816 8.528 5.888 0.256 0.8 0.256 1.584 0.256 2.368v5.888c-7.648 0.096-14.944-1.472-14.944-7.984zM114.496 71.824c-6.672 0-9.488-6.064-9.936-10.464h18.816c0.080 3.952-1.68 10.464-8.88 10.464zM405.424 70.688c-4.48 0-8.608-3.248-9.76-8-0.16-0.88-0.336-1.84-0.336-2.736v-6.576c0-1.056 0.096-2.032 0.272-3.008 1.136-4.384 4.928-7.568 9.584-7.568 6.864 0 10.912 5.712 10.912 14.16-0.032 7.568-3.728 13.728-10.672 13.728zM54.032 86.672c-3.424 0-5.792-0.272-7.376-0.608v-42.448c1.488-0.272 3.776-0.272 5.968-0.272 14.064-0.080 22.416 7.728 22.416 22.768 0.096 13.008-7.456 20.56-21.008 20.56z" />
<glyph unicode="&#xe601;" d="M512 480c0-170.672 0-341.344 0-512-170.624 0-341.264 0-511.888 0 0.416 170.432-0.864 342.624 0.64 512 170.416 0 340.816 0 511.248 0zM460.24 352.16c0 25.36 0 50.72 0 76.064-135.92 0-271.808 0-407.728 0-0.736-0.096-0.688-1.008-0.64-1.904 0-135.52 0-271.024 0-406.544 136.112 0 272.256 0 408.352 0 0 97.808 0 195.616 0 293.408zM426.176 90.832l-8.992 30.176-31.152 31.344 22.816 27.68v33.376h-83.568l-5.632 5.664 89.184 104.736-7.056 23.104h-107.184l-49.856-52.496-52.192 52.496h-100.128l-4.496-29.52 93.6-89.52-93.6-98.528v-23.744h221.424v-14.768h116.832zM307.584 132.176l-190.608 185.456-0.176 8.336 10.912 0.224 190.544-181.6 0.256-12.208-10.928-0.208z" />
<glyph unicode="&#xe602;" d="M168.288 167.12l-21.152-69.648h-46.304l78.752 245.744h57.248l79.84-245.744h-48.496l-22.24 69.648h-77.648zM238.64 201.024l-19.312 60.528c-4.752 14.944-8.768 31.712-12.4 45.952h-0.736c-3.648-14.224-7.648-31.344-11.664-45.952l-18.96-60.528h63.072zM395.168 324.624c0-13.12-9.84-24.064-25.536-24.064-14.944 0-24.784 10.944-24.784 24.064 0 13.872 10.208 24.432 25.152 24.432 15.328 0 24.816-10.56 25.168-24.432zM347.408 97.488v177.552h44.848v-177.568h-44.848zM0 480v-512h512v512h-512zM480 0h-448v448h448v-448z" />
<glyph unicode="&#xe603;" d="M0 480v-512h512v512h-512zM480 0h-448v448h448v-448zM183.36 347.2v-245.728h-44.864v245.728h44.864zM230.496 303.52c16.704 2.416 37.376 4.256 59.552 4.256 38.272 0 64.416-7.904 83.28-23.696 20.032-16.096 32.176-40.704 32.176-75.36 0-36.736-12.464-63.808-31.872-81.408-20.368-18.544-52.88-27.952-92.688-27.952-21.568 0-37.968 1.216-50.432 2.736v201.424zM267.872 129.712c5.152-0.912 13.056-0.912 20.656-0.912 48.624-0.32 77.488 26.72 77.488 78.688 0.304 44.976-25.824 71.088-72.608 71.088-11.872 0-20.080-0.912-25.536-2.112v-146.752z" />
<glyph unicode="&#xe604;" d="M102.208 343.632c16.416 2.912 38.656 5.104 68.544 5.104 32.816 0 56.528-6.944 72.208-20.064 14.576-12.016 24.048-31.344 24.048-54.336 0-23.328-7.28-42.272-20.784-55.392-18.24-17.872-45.92-26.624-77.664-26.624-8.368 0-15.68 0.336-21.856 1.808v-92.96h-44.496v242.464zM146.704 229.504c5.824-1.84 12.736-2.192 21.856-2.192 33.552 0 53.968 16.768 53.968 45.216 0 27.344-18.976 41.568-49.968 41.568-12.368 0-21.136-1.088-25.856-2.192v-82.4zM301.2 141.872c11.872-6.992 30.384-13.056 49.552-13.056 23.68 0 37.040 11.248 37.040 27.968 0 15.504-10.336 24.592-36.16 34.016-34.032 12.144-55.616 30.064-55.616 59.552 0 33.712 27.968 58.928 72.624 58.928 22.208 0 38.304-4.848 48.928-10.336l-8.832-30.064c-7.568 3.952-21.84 9.728-40.992 9.728-23.728 0-33.728-12.464-33.728-24.608 0-15.824 11.84-23.088 39.184-33.728 35.536-13.392 52.576-31.328 52.576-60.768 0-33.12-24.944-61.68-77.488-61.68-21.872 0-44.352 6.096-55.616 13.056l8.528 30.992zM0 480v-512h512v512h-512zM480 0h-448v448h448v-448z" />
<glyph unicode="&#xe605;" d="M291.664 469.312c0.992-0.24 1.216-1.216 2.432-1.216 0-163.136 0-326.272 0-489.408-95.312 14.944-198.368 32.704-294.096 51.248 0 129.776 0 259.552 0 389.328 96.72 17.2 195.312 32.496 291.664 50.048zM185.504 210.576c18.496 17.712 22.192 60.496 6.112 81.776-15.744 20.816-52.864 13.824-85.44 12.208 0-54.928 0-109.856 0-164.784 8.96 0 17.904 0 26.848 0 0.8 18.336-1.584 39.808 1.216 56.16 21.232 0.096 39.296 3.184 51.264 14.64zM307.552 376.56c66.72-1.616 139.92 3.232 202.592-2.432 2.24-58.352 1.2-123.536 1.2-185.536 0-19.664 2.944-40.336-3.632-57.344-4.912 0-9.792 0-14.672 0-2.864 72-0.384 149.296-1.232 223.344-59.376 2.832-124.064 0.384-185.504 1.216 0 5.68 0 11.392 0 17.072-0.080 1.76-0.176 3.456 1.248 3.68zM473.52 338.72c4.048-81.616 4.064-180.752 0-263.616-50.864-5.664-112.256-0.848-167.2-2.448 0.704 9.472-1.472 21.808 1.232 29.296 38.256 0 76.464 0 114.736 0 2.816 5.312 0.416 15.856 1.2 23.184-36.624 2.848-78.512 0.416-117.168 1.232 0 6.096 0 12.192 0 18.304 38.64 0 77.296 0 115.968 0 2.816 5.696 0.416 16.672 1.2 24.384-39.040 0-78.112 0-117.168 0 0 6.944 0 13.84 0 20.784 47.648-12.88 83.12 14.32 86.64 57.344-18.688 2.848-42.688 0.416-63.424 1.216 0 20.768 0 41.504 0 62.256-7.536 3.488-15.248-2.4-23.216-2.432 0.816 10.592-1.616 24.384 1.232 32.928 54.528-1.584 115.488 3.232 165.968-2.432zM340.48 321.632c-2.8-17.92-0.416-41.040-1.216-61.008 17.952-2.8 41.056-0.416 61.024-1.216-0.192 35.6-22.48 59.648-59.808 62.224zM134.24 224c-1.904 14.416-2.080 36.864 0 51.28 44.672 17.792 43.568-64.496 0-51.28z" />
<glyph unicode="&#xe606;" d="M478.224 389.12c0 0-5.648 25.552-25.744 25.552-0.416 0-1.2 0-1.904 0-0.528 5.76-0.848 9.136-0.848 9.136s-4.992 20.88-22.672 20.88c-17.696 0-344.528 0-344.528 0s-21.408-1.68-23.216-20.88l-0.912-9.568c-6.192-1.232-22.16-6.16-23.824-25.12l-30.8-349.504c0 0-4.384-36.304 27.024-36.304s453.072 0 453.072 0 25.76 0 24.496 24.88c-1.248 24.864-30.144 360.928-30.144 360.928zM170.56 223.44c8 8.496 26.496 5.744 33.008 3.248s26.496-9.744 37.008-10.752 43.264-1.008 42.512 18-14.512 21.504-19.264 24.752-31.504 8.752-55.008 16.496-35.248 27.504-35.008 41.744 9.504 27.008 25.008 37.744 37.744 14.496 52.752 14.496 38.256-5.008 52.256-10.256 14.752-14.256 15.008-18.496-5.744-9.008-14.496-11.744-28.256 5.248-28.256 5.248c-8.736 3.024-18.544 6.656-37.264 1.248-14.256-8.256-12.496-22.256-1.008-28.752s74.752-10 96-45.248c15.248-37.248-6.496-58.256-10.256-61.744s-27.008-25.504-78.512-25.504c-51.504 0-68.752 15.248-76.752 21.248s-5.728 19.776 2.272 28.272zM475.232 16.464c0 0-405.664 0-435.888 0s-26 35.136-26 35.136l29.648 338.336c1.088 12.48 8.592 18.592 15.168 21.664l-25.968-273.312c0 0-3.856-29.664 23.776-29.664 27.648 0 398.704 0 398.704 0s22.656 0.016 21.568 20.336c-0.96 18-21.040 235.472-25.6 284.8 14.736-4.208 19.152-23.824 19.152-23.824s27.792-325.312 29.008-349.392c1.216-24.064-23.568-24.080-23.568-24.080zM458.944 100.768c0 0-377.072 0-405.168 0-19.584 0-23.52 14.608-24.16 23.552v-44.336c0 0-3.936-30.336 24.16-30.336s405.168 0 405.168 0 23.024 0.016 21.904 20.816c-1.104 20.784 0 51.12 0 51.12 1.12-20.8-21.904-20.816-21.904-20.816z" />
<glyph unicode="&#xe607;" d="M512 480c0-170.672 0-341.344 0-512-170.624 0-341.264 0-511.888 0 0.416 170.432-0.864 342.624 0.64 512 170.416 0 340.816 0 511.248 0zM51.872 426.32c0-135.52 0-271.024 0-406.544 136.112 0 272.256 0 408.352 0 0 97.808 0 195.616 0 293.408-8.304 0-16.608 0-24.928 0-38.688-76.56-76.272-154.272-115.664-230.112-25.568 0-51.12 0-76.688 0-0.432 37.28 0.848 76.272-0.64 112.48-20.56-38.016-41.6-75.568-63.264-112.48-27.68 0-55.376 0-83.072 0 0 76.688 0 153.408 0 230.112-8.528 0-17.040 0-25.568 0 0.432 12.768-0.848 27.248 0.64 38.976 36-0.416 73.696 0.864 108.64-0.64-0.432-12.56 0.864-26.848-0.64-38.336-8.32 0-16.624 0-24.928 0 0.416-34.304-0.848-70.32 0.64-103.552 25.024 47.84 49.872 95.84 76.048 142.528 29.824 0 59.664 0 89.472 0 0.432-41.328-0.848-84.368 0.656-124.64 13.632 29.184 28.88 56.784 42.8 85.664-5.952 0.416-13.632-0.848-18.528 0.64 0 12.784 0 25.568 0 38.336 38.336 0 76.688 0 115.024 0 0 25.36 0 50.72 0 76.064-135.92 0-271.808 0-407.728 0-0.72-0.096-0.688-1.008-0.624-1.904z" />
<glyph unicode="&#xe608;" d="M512 176l-96 96v144h-64v-80l-96 96-256-256v-16h64v-160h160v96h64v-96h160v160h64z" />
<glyph unicode="&#xe609;" d="M0-32h256v512h-256v-512zM160 416h64v-64h-64v64zM160 288h64v-64h-64v64zM160 160h64v-64h-64v64zM32 416h64v-64h-64v64zM32 288h64v-64h-64v64zM32 160h64v-64h-64v64zM288 320h224v-32h-224zM288-32h64v128h96v-128h64v288h-224z" />
<glyph unicode="&#xe60a;" d="M288.117 335.365l121.356 40.716 101.792-303.392-121.356-40.716zM0 32h128v352h-128v-352zM32 320h64v-32h-64v32zM160 32h128v352h-128v-352zM192 320h64v-32h-64v32z" />
<glyph unicode="&#xe60b;" d="M256 480l-256-160h512l-256 160zM400 288l16-32v-192h64v192l16 32h-96zM272 288l16-32v-192h64v192l16 32h-96zM144 288l16-32v-192h64v192l16 32h-96zM16 288l16-32v-192h64v192l16 32h-96zM16 32l-16-64h512l-16 64h-480zM288 384c0-17.673-14.327-32-32-32s-32 14.327-32 32 14.327 32 32 32c17.673 0 32-14.327 32-32z" />
<glyph unicode="&#xe60c;" d="M464 416h-416c-26.4 0-48-21.6-48-48v-320c0-26.4 21.6-48 48-48h416c26.4 0 48 21.6 48 48v320c0 26.4-21.6 48-48 48zM199.37 204.814l-135.37-105.446v250.821l135.37-145.375zM88.19 352h335.62l-167.81-126-167.81 126zM204.644 199.151l51.356-55.151 51.355 55.151 105.277-135.151h-313.264l105.276 135.151zM312.63 204.814l135.37 145.375v-250.821l-135.37 105.446z" />
<glyph unicode="&#xe60d;" d="M512 64v384h-512v-384h224v-32h-96v-32h256v32h-96v32h224zM64 384h384v-256h-384v256z" />
<glyph unicode="&#xe60e;" d="M368 480h-224c-26.4 0-48-21.6-48-48v-416c0-26.4 21.6-48 48-48h224c26.4 0 48 21.6 48 48v416c0 26.4-21.6 48-48 48zM192 456h128v-16h-128v16zM256 0c-17.673 0-32 14.327-32 32s14.327 32 32 32 32-14.327 32-32-14.327-32-32-32zM384 96h-256v320h256v-320z" />
<glyph unicode="&#xe60f;" d="M501.467 71.062l-230.276 197.38c10.724 20.149 16.809 43.141 16.809 67.558 0 79.529-64.471 144-144 144-14.547 0-28.586-2.166-41.823-6.177l83.195-83.195c12.445-12.445 12.445-32.81 0-45.255l-50.745-50.745c-12.445-12.445-32.81-12.445-45.255 0l-83.195 83.195c-4.011-13.237-6.177-27.276-6.177-41.823 0-79.529 64.471-144 144-144 24.417 0 47.409 6.085 67.558 16.81l197.38-230.276c11.454-13.362 31.008-14.113 43.452-1.669l50.746 50.746c12.444 12.444 11.693 31.997-1.669 43.451z" />
<glyph unicode="&#xe610;" d="M181.861 118.974l20.649 28.908-22.627 22.628-28.909-20.648c-5.361 2.997-11.102 5.387-17.133 7.096l-5.841 35.042h-32l-5.84-35.043c-6.031-1.709-11.772-4.099-17.133-7.096l-28.909 20.649-22.628-22.628 20.649-28.908c-2.997-5.36-5.387-11.103-7.096-17.133l-35.043-5.841v-32l35.043-5.841c1.709-6.030 4.099-11.772 7.096-17.133l-20.649-28.908 22.627-22.628 28.909 20.648c5.361-2.997 11.102-5.387 17.133-7.096l5.841-35.042h32l5.84 35.043c6.031 1.709 11.772 4.099 17.133 7.096l28.909-20.648 22.627 22.628-20.649 28.908c2.997 5.36 5.387 11.103 7.096 17.133l35.044 5.84v32l-35.043 5.841c-1.709 6.030-4.099 11.772-7.096 17.133zM112 48c-17.674 0-32 14.327-32 32s14.326 32 32 32 32-14.327 32-32-14.326-32-32-32zM512 288v32l-33.691 6.125c-0.621 4.023-1.416 7.989-2.362 11.895l28.779 18.55-12.246 29.564-33.472-7.234c-2.107 3.455-4.363 6.81-6.746 10.065l19.503 28.171-22.628 22.627-28.171-19.503c-3.256 2.383-6.61 4.638-10.065 6.747l7.234 33.472-29.564 12.247-18.55-28.779c-3.906 0.946-7.872 1.741-11.895 2.362l-6.126 33.691h-32l-6.126-33.691c-4.023-0.621-7.988-1.416-11.895-2.362l-18.549 28.779-29.564-12.246 7.234-33.472c-3.455-2.108-6.81-4.364-10.065-6.747l-28.171 19.503-22.627-22.627 19.503-28.171c-2.383-3.255-4.639-6.61-6.747-10.065l-33.472 7.234-12.246-29.564 28.779-18.55c-0.946-3.906-1.741-7.871-2.362-11.895l-33.692-6.126v-32l33.691-6.125c0.621-4.023 1.416-7.989 2.362-11.895l-28.779-18.55 12.246-29.564 33.472 7.234c2.108-3.455 4.364-6.809 6.747-10.065l-19.503-28.171 22.627-22.628 28.171 19.503c3.255-2.383 6.61-4.638 10.065-6.746l-7.234-33.472 29.564-12.246 18.551 28.779c3.905-0.946 7.871-1.741 11.894-2.362l6.126-33.692h32l6.126 33.691c4.022 0.621 7.988 1.416 11.895 2.362l18.55-28.779 29.564 12.246-7.234 33.472c3.455 2.108 6.81 4.363 10.065 6.746l28.171-19.503 22.628 22.628-19.503 28.171c2.383 3.256 4.638 6.61 6.746 10.065l33.472-7.234 12.246 29.565-28.779 18.55c0.946 3.906 1.741 7.871 2.362 11.895l33.691 6.125zM336 234.4c-38.439 0-69.6 31.161-69.6 69.6s31.16 69.6 69.6 69.6 69.6-31.161 69.6-69.6c0-38.439-31.16-69.6-69.6-69.6z" />
<glyph unicode="&#xe611;" d="M416 384v64h-320v-64h-96v-64c0-53.019 42.979-96 96-96 10.038 0 19.715 1.543 28.81 4.401 23.087-33.004 58.304-56.898 99.19-65.198v-99.203h-32c-35.347 0-64-28.653-64-64h256c0 35.347-28.653 64-64 64h-32v99.203c40.886 8.3 76.103 32.193 99.19 65.198 9.095-2.858 18.772-4.401 28.81-4.401 53.021 0 96 42.981 96 96v64h-96zM96 262c-31.981 0-58 26.019-58 58v32h58v-32c0-20.093 3.715-39.316 10.477-57.034-3.401-0.623-6.899-0.966-10.477-0.966zM474 320c0-31.981-26.019-58-58-58-3.578 0-7.076 0.343-10.477 0.966 6.762 17.718 10.477 36.941 10.477 57.034v32h58v-32z" />
<glyph unicode="&#xe612;" d="M128 416v-448l160 160 160-160v448zM384 480h-320v-448l32 32v384h288z" />
<glyph unicode="&#xe613;" d="M256 400.638l-172.417-368.638h344.834l-172.417 368.638zM256 480v0c11.035 0 22.070-7.441 30.442-22.324l218.536-435.556c16.745-29.766 2.5-54.12-31.651-54.12h-434.654c-34.152 0-48.395 24.354-31.652 54.12l218.537 435.556c8.372 14.883 19.407 22.324 30.442 22.324zM224 96c0 17.673 14.327 32 32 32s32-14.327 32-32c0-17.673-14.327-32-32-32s-32 14.327-32 32zM256 288c17.673 0 32-14.327 32-32l-10-96h-44l-10 96c0 17.673 14.327 32 32 32z" />
<glyph unicode="&#xe614;" d="M143.728 91.344v297.312h111.552c22.704 0 40.928-3.008 54.672-9.008 13.696-6.032 24.464-15.296 32.272-27.808 7.744-12.48 11.632-25.584 11.632-39.248 0-12.72-3.44-24.656-10.32-35.888-6.912-11.2-17.312-20.288-31.248-27.152 18-5.296 31.792-14.304 41.472-27.008 9.664-12.704 14.512-27.68 14.512-45.008 0-13.952-2.944-26.896-8.832-38.832-5.872-11.968-13.152-21.2-21.808-27.696-8.656-6.48-19.504-11.392-32.544-14.72-13.040-3.28-29.024-4.944-47.968-4.944h-113.392zM183.072 263.712h64.304c17.44 0 29.952 1.152 37.52 3.44 10 2.992 17.552 7.92 22.608 14.848 5.072 6.88 7.616 15.52 7.616 25.952 0 9.856-2.368 18.544-7.104 26.032-4.736 7.552-11.488 12.672-20.288 15.424-8.8 2.784-23.856 4.176-45.216 4.176h-59.44v-89.872zM183.072 126.416h74.032c12.704 0 21.632 0.464 26.768 1.424 9.056 1.632 16.64 4.336 22.72 8.128 6.080 3.776 11.072 9.264 15.008 16.528 3.904 7.216 5.872 15.568 5.872 25.024 0 11.088-2.848 20.704-8.528 28.896-5.68 8.208-13.568 13.952-23.632 17.232-10.080 3.328-24.576 4.992-43.504 4.992h-68.768v-102.224zM457.648-31.936h-403.296c-29.936 0-54.304 24.336-54.304 54.304v403.28c0 29.952 24.352 54.304 54.304 54.304h403.28c29.936 0 54.304-24.336 54.304-54.304v-403.28c0-29.968-24.352-54.304-54.288-54.304zM54.352 464.416c-21.376 0-38.784-17.392-38.784-38.784v-403.28c0-21.392 17.392-38.784 38.784-38.784h403.28c21.392 0 38.784 17.392 38.784 38.784v403.296c0 21.392-17.392 38.784-38.784 38.784h-403.28z" />
<glyph unicode="&#xe615;" d="M171.712 203.472l18.192-4.592c-3.808-14.944-10.672-26.336-20.576-34.176s-22.016-11.76-36.336-11.76c-14.816 0-26.864 3.008-36.144 9.040s-16.336 14.768-21.184 26.208-7.264 23.712-7.264 36.848c0 14.32 2.736 26.8 8.208 37.456s13.248 18.752 23.344 24.288 21.2 8.304 33.328 8.304c13.744 0 25.312-3.504 34.688-10.496s15.904-16.848 19.6-29.536l-17.904-4.224c-3.184 10-7.808 17.28-13.872 21.84s-13.68 6.848-22.88 6.848c-10.56 0-19.392-2.528-26.48-7.6s-12.080-11.856-14.96-20.384-4.32-17.328-4.32-26.384c0-11.68 1.696-21.888 5.104-30.608s8.704-15.232 15.888-19.552 14.976-6.464 23.344-6.464c10.192 0 18.816 2.944 25.872 8.816s11.856 14.56 14.352 26.128zM206.128 199.44l17.152 1.504c0.816-6.88 2.704-12.512 5.664-16.928s7.584-7.968 13.824-10.688 13.28-4.080 21.088-4.080c6.944 0 13.056 1.024 18.368 3.088s9.264 4.896 11.856 8.48 3.888 7.52 3.888 11.76c0 4.32-1.248 8.080-3.744 11.296s-6.624 5.92-12.368 8.112c-3.68 1.44-11.84 3.664-24.464 6.704s-21.472 5.888-26.528 8.576c-6.56 3.44-11.456 7.696-14.672 12.8s-4.832 10.8-4.832 17.104c0 6.944 1.968 13.424 5.904 19.456s9.68 10.608 17.248 13.728 15.968 4.688 25.216 4.688c10.192 0 19.168-1.648 26.96-4.928s13.76-8.112 17.952-14.48 6.432-13.6 6.752-21.664l-17.44-1.312c-0.944 8.688-4.112 15.248-9.52 19.68s-13.392 6.656-23.952 6.656c-11.008 0-19.008-2.016-24.048-6.048s-7.552-8.896-7.552-14.576c0-4.944 1.776-9.008 5.344-12.192 3.504-3.184 12.64-6.448 27.424-9.792s24.928-6.272 30.416-8.768c8-3.68 13.904-8.352 17.712-14.016s5.712-12.176 5.712-19.552c0-7.312-2.096-14.208-6.288-20.672s-10.16-11.456-18-15.040-16.672-5.392-26.48-5.392c-12.432 0-22.864 1.808-31.264 5.44s-15.008 9.072-19.776 16.352-7.312 15.52-7.552 24.704zM334.192 199.44l17.152 1.504c0.816-6.88 2.704-12.512 5.664-16.928s7.584-7.968 13.824-10.688 13.28-4.080 21.088-4.080c6.944 0 13.056 1.024 18.368 3.088s9.264 4.896 11.856 8.48 3.888 7.52 3.888 11.76c0 4.32-1.248 8.080-3.744 11.296s-6.624 5.92-12.368 8.112c-3.68 1.44-11.84 3.664-24.464 6.704s-21.472 5.888-26.528 8.576c-6.56 3.44-11.456 7.696-14.672 12.8s-4.832 10.8-4.832 17.104c0 6.944 1.968 13.424 5.904 19.456s9.68 10.608 17.248 13.728 15.968 4.688 25.216 4.688c10.192 0 19.168-1.648 26.96-4.928s13.76-8.112 17.952-14.48 6.432-13.6 6.752-21.664l-17.44-1.312c-0.944 8.688-4.112 15.248-9.52 19.68s-13.392 6.656-23.952 6.656c-11.008 0-19.008-2.016-24.048-6.048s-7.552-8.896-7.552-14.576c0-4.944 1.776-9.008 5.344-12.192 3.504-3.184 12.64-6.448 27.424-9.792s24.928-6.272 30.416-8.768c8-3.68 13.904-8.352 17.712-14.016s5.712-12.176 5.712-19.552c0-7.312-2.096-14.208-6.288-20.672s-10.208-11.504-18.048-15.088-16.672-5.392-26.48-5.392c-12.432 0-22.864 1.808-31.264 5.44s-15.008 9.072-19.776 16.352-7.264 15.568-7.504 24.752zM512-32h-512v512h512v-512zM15.52-16.496h480.96v480.992h-480.96v-480.992z" />
<glyph unicode="&#xe616;" d="M206.528 300.064h-51.216v-34.752h3.728c5.776 0 9.872-1.12 12.336-3.344 2.464-2.24 3.696-5.136 3.696-8.72 0-3.504-1.232-6.368-3.696-8.592-2.464-2.24-6.56-3.344-12.336-3.344h-29.36c-5.776 0-9.888 1.104-12.336 3.344-2.464 2.224-3.696 5.104-3.696 8.704 0 4.368 1.92 7.76 5.728 10.192 1.872 1.232 5.84 1.824 11.92 1.76v93.808c-4.192 0.4-7.376 1.696-9.52 3.872-2.128 2.176-3.216 4.912-3.216 8.192 0 3.584 1.232 6.48 3.68 8.72 2.464 2.224 6.576 3.328 12.336 3.328l24.464-0.128c5.776 0 9.872-1.088 12.336-3.264 2.464-2.192 3.696-5.072 3.696-8.656 0-3.6-1.232-6.496-3.696-8.72s-6.56-3.344-12.336-3.344h-3.728v-35.088h51.216v35.088h-3.728c-5.744 0-9.872 1.12-12.336 3.344-2.432 2.224-3.664 5.12-3.664 8.72 0 3.584 1.232 6.48 3.664 8.72 2.464 2.224 6.592 3.328 12.336 3.328l24.464-0.128c5.776 0 9.888-1.088 12.336-3.264 2.448-2.192 3.68-5.072 3.68-8.656 0-3.28-1.072-6.016-3.216-8.192-2.144-2.192-5.312-3.488-9.536-3.872v-93.808c6.16 0 10.16-0.592 11.952-1.76 3.808-2.416 5.696-5.84 5.696-10.304 0-3.504-1.2-6.368-3.664-8.592-2.464-2.24-6.56-3.344-12.336-3.344h-29.392c-5.744 0-9.872 1.104-12.336 3.344-2.432 2.224-3.664 5.104-3.664 8.704 0 3.536 1.232 6.368 3.744 8.608 2.48 2.224 6.576 3.344 12.272 3.344h3.728v34.752zM355.008 359.12v-93.808h16.16c5.76 0 9.872-1.12 12.336-3.344 2.464-2.24 3.664-5.136 3.664-8.72 0-3.504-1.2-6.368-3.664-8.592-2.448-2.24-6.56-3.344-12.336-3.344h-56.176c-5.776 0-9.888 1.104-12.336 3.344-2.464 2.224-3.68 5.104-3.68 8.704 0 3.536 1.216 6.368 3.68 8.608 2.432 2.224 6.544 3.344 12.336 3.344h16.016v93.808h-25.968v-22.672c0-5.776-1.104-9.904-3.312-12.352-2.256-2.448-5.152-3.68-8.72-3.68-3.52 0-6.384 1.232-8.592 3.68-2.256 2.448-3.36 6.576-3.36 12.352v46.784l124.272-0.128v-46.656c0-5.776-1.104-9.904-3.344-12.352-2.224-2.448-5.12-3.68-8.72-3.68-3.504 0-6.352 1.232-8.592 3.68-2.224 2.448-3.328 6.576-3.328 12.352v22.672h-26.336zM142.848 160.24v-71.488h8.672c5.76 0 9.872-1.12 12.336-3.344s3.696-5.12 3.696-8.72c0-3.52-1.232-6.368-3.696-8.592-2.448-2.224-6.56-3.328-12.336-3.328h-31.472c-5.76 0-9.888 1.104-12.352 3.328s-3.696 5.12-3.696 8.704c0 3.536 1.2 6.384 3.648 8.608 2.416 2.224 6.16 3.344 11.232 3.344v93.824c-4.224 0.384-7.424 1.664-9.552 3.856-2.16 2.192-3.2 4.928-3.2 8.192 0 3.6 1.232 6.48 3.664 8.72 2.448 2.224 6.576 3.344 12.336 3.344l26.336-0.128 32.656-72.192 32.032 72.32 26.56-0.128c5.776 0 9.904-1.088 12.336-3.28 2.448-2.176 3.68-5.056 3.68-8.656 0-3.264-1.072-6-3.264-8.192-2.208-2.192-5.36-3.472-9.488-3.856v-93.824c5.056 0 8.816-1.136 11.216-3.392 2.416-2.288 3.664-5.152 3.664-8.672s-1.232-6.368-3.68-8.592c-2.464-2.224-6.592-3.328-12.352-3.328h-31.584c-5.68 0-9.76 1.104-12.208 3.328-2.464 2.224-3.696 5.12-3.696 8.704 0 3.536 1.232 6.384 3.696 8.608 2.432 2.224 6.512 3.344 12.208 3.344h8.8v71.488l-27.52-61.776h-20.816l-27.856 61.776zM332.288 182.576v-93.824h51.728v22.688c0 5.76 1.088 9.888 3.312 12.336 2.256 2.448 5.152 3.68 8.72 3.68 3.52 0 6.384-1.232 8.592-3.68 2.256-2.448 3.36-6.576 3.36-12.336v-46.672h-113.632c-5.76 0-9.872 1.104-12.336 3.328-2.432 2.224-3.664 5.12-3.664 8.704 0 3.536 1.232 6.384 3.664 8.608 2.464 2.224 6.576 3.344 12.336 3.344h13.952v93.824h-13.952c-5.76 0-9.872 1.104-12.336 3.328-2.432 2.24-3.664 5.136-3.664 8.72 0 3.6 1.232 6.48 3.664 8.72 2.464 2.224 6.576 3.344 12.336 3.344l51.936-0.128c5.792 0 9.904-1.088 12.368-3.28 2.432-2.176 3.664-5.056 3.664-8.656 0-3.584-1.232-6.48-3.664-8.72-2.464-2.224-6.576-3.328-12.368-3.328h-14.016zM512-32h-512v512h512v-512zM15.52-16.496h480.96v480.992h-480.96v-480.992z" />
<glyph unicode="&#xe617;" d="M223.008 416c6 0 12 0 18 0 44.656-5.040 83.856-20.864 81.008-68-1.856-30.656-22.016-57.424-46-76-25.008-19.36-58.224-30.032-90-32-29.968-1.856-60.864 6.432-67.008 33.008 6.512 0.096 9.984-7.632 17.008-11.008 33.632-16.176 86.336 1.472 114 20 20.064 13.44 57.664 49.264 43.008 82-15.664 35.008-93.152 19.872-125.008 8-19.328-7.2-37.728-16.288-56.016-27.008-32.352-18.992-75.728-48.816-74-92 1.008-25.056 20.976-41.712 39.008-56 14.768-11.68 29.808-22.608 43.008-34 17.040 8.624 33.248 18.080 50 27.008 9.488 9.92 28.832 36.128 50 31.008 10.96-2.656 12.224-16.816 11.008-31.008 3.136-0.080 13.712 2.912 16-3.008-0.272-22.784-15.408-44.544-12-71.008 8.096 7.168 11.6 18.256 16 28 13.136 29.040 28.256 60.272 39.008 93.008 6.56 3.52 22.832 4.976 29.008 0-6.656-17.424-9.216-46.528 2-61.008 5.696 4.080 8.576 11.152 12 17.008 9.904 16.912 20.16 35.824 25.008 59.008 6.592 3.2 23.952 5.472 30 0-9.2-20.944-6.592-51.84 5.008-68 44.88 22.544 115.808 8.832 119.008-43.008 0-0.672 0-1.328 0-2-3.424-16.256-10.896-28.432-28-31.008 7.072 9.376 16.992 12.304 18 26 3.12 42.176-63.568 53.888-102 39.008 8.864-25.616 0.432-41.824-20-54-5.36-3.184-17.536-10.112-25.008-9.008-14.032 2.064-10.4 21.408-6 31.008 2.288 4.96 7.68 10.688 12 16 3.040 3.744 12.608 11.68 13.008 16 0.384 4.336-5.904 11.92-8 18-2.88 8.336-3.968 15.104-5.008 22-4.656-2.752-5.664-8.72-8-13.008-7.584-13.952-16.832-26.352-24-40 8.032-17.344 7.712-36.16-3.008-48-6.752-7.472-49.904-30.176-56-12-2.656 7.92 11.904 20.88 17.008 27.008 8.24 9.888 15.056 16.608 20 27.008-6.72 12.624-12.576 26.096-15.008 43.008-4.336-2.656-5.744-8.688-8-14-6.992-16.512-12.688-30.464-21.008-47.008-7.408-14.736-23.344-51.664-39.008-49.008-14.912 2.528-11.344 24.784-12 40-9.36-13.248-12.656-44.704-31.008-47.008-33.36-4.192-33.52 63.376-23.008 86-12.192-2.816-19.104-10.896-30.016-14.992 23.248-54.72-16.72-112.96-66-118-8.816-0.912-20.528-1.264-29.008 3.008-19.44 9.792-18.256 42.816-8 60 15.504 25.984 53.024 41.728 76 57.008-29.152 26.256-79.424 47.904-96 88-13.104 31.712 11.616 65.36 29.008 84 15.888 17.024 34.56 30.272 52 41.008 39.456 24.272 85.584 44.896 137.008 49.984zM200 194.992c-16.848-16.176-32.688-61.744-18-86 7.488 2.368 11.072 11.52 14 18 10.208 22.624 18.56 47.104 23.008 74-7.376 2.912-14.8-1.968-19.008-6zM379.008 162c-7.968-10.032-17.344-18.656-18-36 16.272 2.176 25.168 16.688 21.008 36-1.008 0-2.016 0-3.008 0zM111.008 142c-15.12-10.048-37.168-21.152-50-36-8.752-10.128-17.504-25.872-10-43.008 11.536-5.584 25.392-1.248 35.008 5.008 18.208 11.856 33.392 37.152 30 64-0.336 2.496-1.008 7.968-4.016 10-0.336 0-0.672 0-0.992 0zM288 108.992c15.040 3.296 24.080 12.576 26 29.008-0.224 0.784-0.848 1.152-2 1.008-7.024-10.976-16.992-19.008-24-30.016z" />
</font>
</defs>
</svg>
