<?xml version="1.0" encoding="utf-8"?>
<!-- Generator: Adobe Illustrator 15.1.0, SVG Export Plug-In . SVG Version: 6.00 Build 0)  -->
<!DOCTYPE svg PUBLIC "-//W3C//DTD SVG 1.1//EN" "http://www.w3.org/Graphics/SVG/1.1/DTD/svg11.dtd">
<svg version="1.1" xmlns="http://www.w3.org/2000/svg" xmlns:xlink="http://www.w3.org/1999/xlink" x="0px" y="0px" width="2012px"
	 height="153.486px" viewBox="0 0 2012 153.486" enable-background="new 0 0 2012 153.486" xml:space="preserve">
<g id="Layer_2" display="none">
	<rect x="1108.889" y="-124.188" display="inline" fill="#AAE0F3" width="912.138" height="376.878"/>
</g>
<g id="Layer_1">
	<g>
		<g>
			<path fill="#00354E" d="M1451.668,154h257.649h16.862h90.152h197.045v-12.398h-15.473V98.334h2.018v-3.62h-13.244V86.9h-66.507
				v7.813h-13.243v3.62h2.019v43.268h-9.797l-10.335,2.705l-13.133,0.96v-132.1h-0.021l-5.496-12.653l-5.498,12.653h-0.02v134.417
				l-0.854,0.188l-40.795,0.931l-6.667,0.351v-41.012h-4.267v-2.742h-3.594l-8.386-10.609l-7.188,9.582l-7.789,0.812v-2.18
				l-1.624-0.856l-9.755-10.61v-1.712h-1.611v-1.196h-1.126v0.854l-1.369,1.369v1.198l-6.675,11.98v1.368l-7.358-0.342h-1.199
				v-1.197l-1.739-0.634l0.027-9.977l0.854-0.515l1.028-1.883l-2.053-1.196v-2.055l-0.857,0.171l-0.17-1.883h1.027v-1.71h-1.541
				l-0.343-2.226l-3.936,0.171l-0.171,1.711l-4.108-3.251h-2.738l-3.509,2.909l-13.604,0.514l-0.685-1.197h-2.053l1.027,7.529
				h-34.397l-5.818-10.952h-2.396l-11.637,10.096l-27.554,0.856l-2.566-1.711h-2.91l-3.936-3.577l-3.937-0.188l-0.063,2.956
				l-6.097-5.351l-0.685-5.477l-0.685,4.792l-3.361,1.025v25.331h-4.114v-2.742h-3.593l-8.386-10.609l-7.188,9.582l-7.789,0.812
				v-2.18l-1.623-0.856l-9.756-10.61v-1.712h-1.612v-1.196h-1.126v0.854l-1.368,1.369v1.198l-6.675,11.98v1.368l-7.358-0.342h-1.198
				v-1.197l-1.74-0.634l0.027-9.977l0.854-0.515l1.029-1.883l-2.054-1.196v-2.055l-0.855,0.171l-0.171-1.883h1.026v-1.71h-1.54
				l-0.343-2.226l-3.936,0.171l-0.171,1.711l-4.107-3.251h-2.739l-3.508,2.909l-13.605,0.514l-0.685-1.197h-2.053l1.027,7.529
				h-34.397l-5.818-10.952h-2.396l-11.638,10.096l-13.498,0.42 M1513.584,139.838h-4.677v-4.699h4.677V139.838z M1507.953,135.139
				v4.699h-4.65v-4.699H1507.953z M1503.303,140.792h4.65v4.702h-4.65V140.792z M1508.907,145.494v-4.702h4.677v4.702H1508.907z
				 M1527.359,122.817h-3.604v-7.418h3.604V122.817z M1527.359,106.27h-3.604v-7.419h3.604V106.27z M1583.312,152.643h-0.171v-3.703
				h0.171V152.643z M1583.312,146.886h-0.171v-37.993l0.171-0.244V146.886z M1598.294,123.321h-2.303v-4.107h2.303V123.321z
				 M1598.294,118.205h-2.303v-4.108h2.303V118.205z M1606.266,123.321h-2.301v-4.107h2.301V123.321z M1606.266,118.205h-2.301
				v-4.108h2.301V118.205z M1640.951,117.335v3.426h-4.823v-3.426H1640.951z M1636.128,125.202v-3.487h4.823v3.487H1636.128z
				 M1714.956,135.139v4.699h-4.823v-4.699H1714.956z M1709.094,135.139v4.699h-4.42v-4.699H1709.094z M1704.674,140.792h4.42v4.702
				h-4.42V140.792z M1710.133,145.494v-4.702h4.823v4.702H1710.133z M1728.73,122.817h-3.604v-7.418h3.604V122.817z M1728.73,106.27
				h-3.604v-7.419h3.604V106.27z M1784.684,150.265l-0.172-0.003v-1.322h0.172V150.265z M1784.684,146.886h-0.172v-37.993
				l0.172-0.244V146.886z M1799.665,123.321h-2.303v-4.107h2.303V123.321z M1799.665,118.205h-2.303v-4.108h2.303V118.205z
				 M1807.638,123.321h-2.301v-4.107h2.301V123.321z M1807.638,118.205h-2.301v-4.108h2.301V118.205z M1919.529,135.938h-4.98
				v-32.951h1.084v-0.81h2.812v0.81h1.085V135.938z M1929.923,135.938h-4.98v-32.951h1.085v-0.81h2.811v0.81h1.085V135.938z
				 M1981.9,136.387h-4.98v-32.951h1.085v-0.811h2.81v0.811h1.086V136.387z M1992.293,136.387h-4.98v-32.951h1.085v-0.811h2.811
				v0.811h1.085V136.387z"/>
			<polygon fill="#046C9F" points="1939.231,102.987 1939.231,102.178 1936.421,102.178 1936.421,102.987 1935.337,102.987 
				1935.337,135.938 1940.316,135.938 1940.316,102.987 			"/>
			<polygon fill="#046C9F" points="1949.625,102.987 1949.625,102.178 1946.814,102.178 1946.814,102.987 1945.729,102.987 
				1945.729,135.938 1950.712,135.938 1950.712,102.987 			"/>
			<polygon fill="#046C9F" points="1960.018,102.987 1960.018,102.178 1957.209,102.178 1957.209,102.987 1956.123,102.987 
				1956.123,135.938 1961.103,135.938 1961.103,102.987 			"/>
			<polygon fill="#046C9F" points="1970.411,102.987 1970.411,102.178 1967.604,102.178 1967.604,102.987 1966.519,102.987 
				1966.519,135.938 1971.496,135.938 1971.496,102.987 			"/>
			<rect x="1755.249" y="115.399" fill="#046C9F" width="4.276" height="4.106"/>
			<rect x="1738.223" y="133.854" fill="#046C9F" width="8.817" height="9.576"/>
			<rect x="1671.925" y="138.571" fill="#046C9F" width="8.284" height="7.528"/>
			<rect x="1636.81" y="134.807" fill="#046C9F" width="9.402" height="10.688"/>
			<rect x="1755.249" y="120.516" fill="#046C9F" width="4.276" height="4.107"/>
			<rect x="1787.376" y="115.903" fill="#046C9F" width="3.094" height="4.108"/>
			<rect x="1787.376" y="121.021" fill="#046C9F" width="3.094" height="4.107"/>
			<rect x="1797.362" y="134.811" fill="#046C9F" width="2.303" height="4.108"/>
			<rect x="1797.362" y="139.928" fill="#046C9F" width="2.303" height="4.107"/>
			<rect x="1805.337" y="134.811" fill="#046C9F" width="2.301" height="4.108"/>
			<rect x="1805.337" y="139.928" fill="#046C9F" width="2.301" height="4.107"/>
			<rect x="1769.64" y="113.593" fill="#046C9F" width="4.278" height="4.107"/>
			<rect x="1769.64" y="118.709" fill="#046C9F" width="4.278" height="4.108"/>
			<rect x="1775.521" y="113.593" fill="#046C9F" width="4.278" height="4.107"/>
			<rect x="1775.521" y="118.709" fill="#046C9F" width="4.278" height="4.108"/>
			<rect x="1769.503" y="135.315" fill="#046C9F" width="4.278" height="4.107"/>
			<rect x="1769.503" y="131.249" fill="#046C9F" width="10.161" height="2.605"/>
			<rect x="1769.503" y="140.432" fill="#046C9F" width="4.278" height="4.108"/>
			<rect x="1775.384" y="135.315" fill="#046C9F" width="4.28" height="4.107"/>
			<rect x="1775.384" y="140.432" fill="#046C9F" width="4.28" height="4.108"/>
			<rect x="1743.436" y="111.57" fill="#046C9F" width="3.604" height="4.604"/>
			<rect x="1743.436" y="117.204" fill="#046C9F" width="3.604" height="4.604"/>
			<rect x="1737.558" y="111.57" fill="#046C9F" width="3.604" height="4.604"/>
			<rect x="1737.558" y="117.204" fill="#046C9F" width="3.604" height="4.604"/>
			<rect x="1670.123" y="114.772" fill="#046C9F" width="4.229" height="4.604"/>
			<rect x="1670.123" y="120.406" fill="#046C9F" width="4.229" height="4.604"/>
			<rect x="1660.271" y="116.969" fill="#046C9F" width="4.229" height="4.119"/>
			<rect x="1660.271" y="122.078" fill="#046C9F" width="4.229" height="4.119"/>
			<rect x="1628.587" y="116.862" fill="#046C9F" width="4.228" height="4.121"/>
			<rect x="1628.587" y="121.974" fill="#046C9F" width="4.228" height="4.119"/>
			<rect x="1615.924" y="113.012" fill="#046C9F" width="4.228" height="4.12"/>
			<rect x="1615.924" y="118.123" fill="#046C9F" width="4.228" height="4.119"/>
			<rect x="1614.808" y="132.296" fill="#046C9F" width="4.228" height="5.034"/>
			<rect x="1614.808" y="138.395" fill="#046C9F" width="4.228" height="5.036"/>
			<rect x="1629.902" y="99.611" fill="#046C9F" width="4.228" height="4.12"/>
			<rect x="1629.902" y="104.723" fill="#046C9F" width="4.228" height="4.119"/>
			<rect x="1659.473" y="99.776" fill="#046C9F" width="5.826" height="4.12"/>
			<rect x="1659.473" y="104.888" fill="#046C9F" width="5.826" height="4.119"/>
			<rect x="1677.43" y="114.772" fill="#046C9F" width="4.228" height="4.604"/>
			<rect x="1677.43" y="120.406" fill="#046C9F" width="4.228" height="4.604"/>
			<rect x="1674.352" y="96.926" fill="#046C9F" width="4.228" height="4.516"/>
			<rect x="1674.352" y="102.464" fill="#046C9F" width="4.228" height="4.515"/>
			<rect x="1711.163" y="117.672" fill="#046C9F" width="4.824" height="3.781"/>
			<rect x="1711.163" y="122.417" fill="#046C9F" width="4.824" height="3.78"/>
			<rect x="1703.492" y="117.672" fill="#046C9F" width="4.822" height="3.781"/>
			<rect x="1703.492" y="122.417" fill="#046C9F" width="4.822" height="3.78"/>
			<rect x="1643.801" y="116.675" fill="#046C9F" width="4.822" height="3.782"/>
			<rect x="1643.801" y="121.421" fill="#046C9F" width="4.822" height="3.781"/>
			<rect x="1691.831" y="100.269" fill="#046C9F" width="4.822" height="3.783"/>
			<rect x="1691.831" y="105.015" fill="#046C9F" width="4.822" height="3.781"/>
			<rect x="1691.831" y="120.516" fill="#046C9F" width="4.822" height="5.998"/>
			<rect x="1737.558" y="96.926" fill="#046C9F" width="3.604" height="4.604"/>
			<rect x="1737.558" y="102.56" fill="#046C9F" width="3.604" height="4.604"/>
			<rect x="1742.501" y="96.926" fill="#046C9F" width="3.604" height="4.604"/>
			<rect x="1742.501" y="102.56" fill="#046C9F" width="3.604" height="4.604"/>
			<rect x="1786.962" y="134.76" fill="#046C9F" width="5.105" height="11.666"/>
			<rect x="1689.375" y="137.239" fill="#046C9F" width="3.619" height="12.381"/>
			<rect x="1694.242" y="137.239" fill="#046C9F" width="3.618" height="12.381"/>
			<polygon fill="#046C9F" points="1758.328,146.426 1755.249,146.426 1754.051,143.763 1754.051,133.429 1758.328,133.429 			"/>
			<polygon fill="#046C9F" points="1661.021,149.38 1664.101,149.38 1665.299,147.165 1665.299,138.571 1661.021,138.571 			"/>
			<polygon fill="#046C9F" points="1724.788,146.718 1727.869,146.718 1729.068,144.504 1729.068,135.908 1724.788,135.908 			"/>
			<polygon fill="#046C9F" points="1626.939,148.835 1630.594,148.835 1632.016,146.187 1632.016,135.908 1626.939,135.908 			"/>
			<path fill="#046C9F" d="M1729.743,134.879c0-1.391-1.128-2.518-2.518-2.518s-2.518,1.127-2.518,2.518H1729.743z"/>
			<path fill="#046C9F" d="M1792.031,133.811c0-1.39-1.127-2.518-2.517-2.518s-2.518,1.128-2.518,2.518H1792.031z"/>
			<rect x="1553.877" y="115.399" fill="#046C9F" width="4.277" height="4.106"/>
			<rect x="1536.852" y="133.854" fill="#046C9F" width="8.817" height="9.576"/>
			<rect x="1470.554" y="138.571" fill="#046C9F" width="8.284" height="7.528"/>
			<rect x="1553.877" y="120.516" fill="#046C9F" width="4.277" height="4.107"/>
			<rect x="1586.005" y="115.903" fill="#046C9F" width="3.093" height="4.108"/>
			<rect x="1586.005" y="121.021" fill="#046C9F" width="3.093" height="4.107"/>
			<rect x="1595.991" y="134.811" fill="#046C9F" width="2.303" height="4.108"/>
			<rect x="1595.991" y="139.928" fill="#046C9F" width="2.303" height="4.107"/>
			<rect x="1603.965" y="134.811" fill="#046C9F" width="2.301" height="4.108"/>
			<rect x="1603.965" y="139.928" fill="#046C9F" width="2.301" height="4.107"/>
			<rect x="1568.268" y="113.593" fill="#046C9F" width="4.279" height="4.107"/>
			<rect x="1568.268" y="118.709" fill="#046C9F" width="4.279" height="4.108"/>
			<rect x="1574.149" y="113.593" fill="#046C9F" width="4.278" height="4.107"/>
			<rect x="1574.149" y="118.709" fill="#046C9F" width="4.278" height="4.108"/>
			<rect x="1568.132" y="135.315" fill="#046C9F" width="4.278" height="4.107"/>
			<rect x="1568.132" y="131.249" fill="#046C9F" width="10.16" height="2.605"/>
			<rect x="1568.132" y="140.432" fill="#046C9F" width="4.278" height="4.108"/>
			<rect x="1574.014" y="135.315" fill="#046C9F" width="4.278" height="4.107"/>
			<rect x="1574.014" y="140.432" fill="#046C9F" width="4.278" height="4.108"/>
			<rect x="1542.064" y="111.57" fill="#046C9F" width="3.604" height="4.604"/>
			<rect x="1542.064" y="117.204" fill="#046C9F" width="3.604" height="4.604"/>
			<rect x="1536.186" y="111.57" fill="#046C9F" width="3.604" height="4.604"/>
			<rect x="1536.186" y="117.204" fill="#046C9F" width="3.604" height="4.604"/>
			<rect x="1468.752" y="114.772" fill="#046C9F" width="4.228" height="4.604"/>
			<rect x="1468.752" y="120.406" fill="#046C9F" width="4.228" height="4.604"/>
			<rect x="1458.9" y="116.969" fill="#046C9F" width="4.228" height="4.119"/>
			<rect x="1458.9" y="122.078" fill="#046C9F" width="4.228" height="4.119"/>
			<rect x="1458.101" y="99.776" fill="#046C9F" width="5.826" height="4.12"/>
			<rect x="1458.101" y="104.888" fill="#046C9F" width="5.826" height="4.119"/>
			<rect x="1476.058" y="114.772" fill="#046C9F" width="4.229" height="4.604"/>
			<rect x="1476.058" y="120.406" fill="#046C9F" width="4.229" height="4.604"/>
			<rect x="1472.979" y="96.926" fill="#046C9F" width="4.228" height="4.516"/>
			<rect x="1472.979" y="102.464" fill="#046C9F" width="4.228" height="4.515"/>
			<rect x="1509.792" y="117.672" fill="#046C9F" width="4.823" height="3.781"/>
			<rect x="1509.792" y="122.417" fill="#046C9F" width="4.823" height="3.78"/>
			<rect x="1502.12" y="117.672" fill="#046C9F" width="4.823" height="3.781"/>
			<rect x="1502.12" y="122.417" fill="#046C9F" width="4.823" height="3.78"/>
			<rect x="1490.459" y="100.269" fill="#046C9F" width="4.823" height="3.783"/>
			<rect x="1490.459" y="105.015" fill="#046C9F" width="4.823" height="3.781"/>
			<rect x="1490.459" y="120.516" fill="#046C9F" width="4.823" height="5.998"/>
			<rect x="1536.186" y="96.926" fill="#046C9F" width="3.604" height="4.604"/>
			<rect x="1536.186" y="102.56" fill="#046C9F" width="3.604" height="4.604"/>
			<rect x="1541.13" y="96.926" fill="#046C9F" width="3.604" height="4.604"/>
			<rect x="1541.13" y="102.56" fill="#046C9F" width="3.604" height="4.604"/>
			<rect x="1585.591" y="134.76" fill="#046C9F" width="5.105" height="11.666"/>
			<rect x="1488.004" y="137.239" fill="#046C9F" width="3.618" height="12.381"/>
			<rect x="1492.871" y="137.239" fill="#046C9F" width="3.618" height="12.381"/>
			<polygon fill="#046C9F" points="1556.957,146.426 1553.877,146.426 1552.679,143.763 1552.679,133.429 1556.957,133.429 			"/>
			<polygon fill="#046C9F" points="1459.649,149.38 1462.729,149.38 1463.927,147.165 1463.927,138.571 1459.649,138.571 			"/>
			<polygon fill="#046C9F" points="1523.417,146.718 1526.498,146.718 1527.695,144.504 1527.695,135.908 1523.417,135.908 			"/>
			<path fill="#046C9F" d="M1528.371,134.879c0-1.391-1.127-2.518-2.517-2.518c-1.389,0-2.517,1.127-2.517,2.518H1528.371z"/>
			<path fill="#046C9F" d="M1590.66,133.811c0-1.39-1.127-2.518-2.517-2.518s-2.519,1.128-2.519,2.518H1590.66z"/>
		</g>
		<g>
			<path fill="#00354E" d="M1088.872,108.041h-3.774v-2.742h-3.594l-8.386-10.609l-7.188,9.582l-7.789,0.812v-2.18l-1.625-0.856
				l-9.755-10.61v-1.712h-1.611v-1.196h-1.125v0.854l-1.369,1.369v1.198l-6.675,11.98v1.368l-7.359-0.342h-1.199v-1.197
				l-1.739-0.634l0.027-9.977l0.854-0.515l1.029-1.883l-2.054-1.196v-2.055l-0.857,0.171l-0.17-1.883h1.027v-1.71h-1.54
				l-0.343-2.226l-3.936,0.171l-0.171,1.711l-4.108-3.251h-2.738l-3.509,2.909l-13.604,0.514l-0.685-1.197h-2.053l1.027,7.529
				h-34.397l-5.818-10.952h-2.396l-11.637,10.096l-27.553,0.856l-2.567-1.711h-2.909l-3.936-3.577l-3.937-0.188l-0.064,2.956
				l-6.097-5.351l-0.685-5.477l-0.685,4.792l-3.361,1.025v25.331h-4.114v-2.742h-3.594l-8.385-10.609l-7.188,9.582l-7.79,0.812
				v-2.18l-1.623-0.856l-9.755-10.61v-1.712h-1.612v-1.196h-1.126v0.854l-1.368,1.369v1.198l-6.675,11.98v1.368l-7.358-0.342h-1.199
				v-1.197l-1.74-0.634l0.027-9.977l0.854-0.515l1.029-1.883l-2.054-1.196v-2.055l-0.855,0.171l-0.17-1.883h1.026v-1.71h-1.54
				l-0.343-2.226l-3.936,0.171l-0.171,1.711l-4.107-3.251h-2.739l-3.508,2.909l-13.605,0.514l-0.685-1.197h-2.053l1.027,7.529
				h-34.397l-5.818-10.952h-2.396l-11.637,10.096l-13.499,0.42L724.7,154h257.65h16.862h89.661V108.041z M780.985,145.494h-4.65
				v-4.702h4.65V145.494z M780.985,139.838h-4.65v-4.699h4.65V139.838z M786.616,145.494h-4.677v-4.702h4.677V145.494z
				 M786.616,139.838h-4.677v-4.699h4.677V139.838z M800.391,122.817h-3.604v-7.418h3.604V122.817z M800.391,106.27h-3.604v-7.419
				h3.604V106.27z M856.344,152.643h-0.171v-3.703h0.171V152.643z M856.344,146.886h-0.171v-37.993l0.171-0.244V146.886z
				 M871.326,123.321h-2.302v-4.107h2.302V123.321z M871.326,118.205h-2.302v-4.108h2.302V118.205z M879.298,123.321h-2.301v-4.107
				h2.301V123.321z M879.298,118.205h-2.301v-4.108h2.301V118.205z M913.984,125.202h-4.824v-3.487h4.824V125.202z M913.984,120.761
				h-4.824v-3.426h4.824V120.761z M982.126,145.494h-4.42v-4.702h4.42V145.494z M982.126,139.838h-4.42v-4.699h4.42V139.838z
				 M987.988,145.494h-4.823v-4.702h4.823V145.494z M987.988,139.838h-4.823v-4.699h4.823V139.838z M1001.762,122.817h-3.604v-7.418
				h3.604V122.817z M1001.762,106.27h-3.604v-7.419h3.604V106.27z M1057.715,150.265l-0.171-0.003v-1.322h0.171V150.265z
				 M1057.715,146.886h-0.171v-37.993l0.171-0.244V146.886z M1072.697,123.321h-2.302v-4.107h2.302V123.321z M1072.697,118.205
				h-2.302v-4.108h2.302V118.205z M1080.67,123.321h-2.301v-4.107h2.301V123.321z M1080.67,118.205h-2.301v-4.108h2.301V118.205z"/>
			<rect x="1028.281" y="115.399" fill="#046C9F" width="4.277" height="4.106"/>
			<rect x="1011.255" y="133.854" fill="#046C9F" width="8.817" height="9.576"/>
			<rect x="944.957" y="138.571" fill="#046C9F" width="8.284" height="7.528"/>
			<rect x="909.842" y="134.807" fill="#046C9F" width="9.402" height="10.688"/>
			<rect x="1028.281" y="120.516" fill="#046C9F" width="4.277" height="4.107"/>
			<rect x="1060.408" y="115.903" fill="#046C9F" width="3.094" height="4.108"/>
			<rect x="1060.408" y="121.021" fill="#046C9F" width="3.094" height="4.107"/>
			<rect x="1070.395" y="134.811" fill="#046C9F" width="2.302" height="4.108"/>
			<rect x="1070.395" y="139.928" fill="#046C9F" width="2.302" height="4.107"/>
			<rect x="1078.369" y="134.811" fill="#046C9F" width="2.301" height="4.108"/>
			<rect x="1078.369" y="139.928" fill="#046C9F" width="2.301" height="4.107"/>
			<rect x="1042.672" y="113.593" fill="#046C9F" width="4.278" height="4.107"/>
			<rect x="1042.672" y="118.709" fill="#046C9F" width="4.278" height="4.108"/>
			<rect x="1048.553" y="113.593" fill="#046C9F" width="4.278" height="4.107"/>
			<rect x="1048.553" y="118.709" fill="#046C9F" width="4.278" height="4.108"/>
			<rect x="1042.535" y="135.315" fill="#046C9F" width="4.279" height="4.107"/>
			<rect x="1042.535" y="131.249" fill="#046C9F" width="10.161" height="2.605"/>
			<rect x="1042.535" y="140.432" fill="#046C9F" width="4.279" height="4.108"/>
			<rect x="1048.416" y="135.315" fill="#046C9F" width="4.28" height="4.107"/>
			<rect x="1048.416" y="140.432" fill="#046C9F" width="4.28" height="4.108"/>
			<rect x="1016.468" y="111.57" fill="#046C9F" width="3.604" height="4.604"/>
			<rect x="1016.468" y="117.204" fill="#046C9F" width="3.604" height="4.604"/>
			<rect x="1010.59" y="111.57" fill="#046C9F" width="3.604" height="4.604"/>
			<rect x="1010.59" y="117.204" fill="#046C9F" width="3.604" height="4.604"/>
			<rect x="943.155" y="114.772" fill="#046C9F" width="4.228" height="4.604"/>
			<rect x="943.155" y="120.406" fill="#046C9F" width="4.228" height="4.604"/>
			<rect x="933.304" y="116.969" fill="#046C9F" width="4.229" height="4.119"/>
			<rect x="933.304" y="122.078" fill="#046C9F" width="4.229" height="4.119"/>
			<rect x="901.619" y="116.862" fill="#046C9F" width="4.228" height="4.121"/>
			<rect x="901.619" y="121.974" fill="#046C9F" width="4.228" height="4.119"/>
			<rect x="888.956" y="113.012" fill="#046C9F" width="4.228" height="4.12"/>
			<rect x="888.956" y="118.123" fill="#046C9F" width="4.228" height="4.119"/>
			<rect x="887.84" y="132.296" fill="#046C9F" width="4.228" height="5.034"/>
			<rect x="887.84" y="138.395" fill="#046C9F" width="4.228" height="5.036"/>
			<rect x="902.934" y="99.611" fill="#046C9F" width="4.228" height="4.12"/>
			<rect x="902.934" y="104.723" fill="#046C9F" width="4.228" height="4.119"/>
			<rect x="932.505" y="99.776" fill="#046C9F" width="5.826" height="4.12"/>
			<rect x="932.505" y="104.888" fill="#046C9F" width="5.826" height="4.119"/>
			<rect x="950.461" y="114.772" fill="#046C9F" width="4.228" height="4.604"/>
			<rect x="950.461" y="120.406" fill="#046C9F" width="4.228" height="4.604"/>
			<rect x="947.383" y="96.926" fill="#046C9F" width="4.228" height="4.516"/>
			<rect x="947.383" y="102.464" fill="#046C9F" width="4.228" height="4.515"/>
			<rect x="984.195" y="117.672" fill="#046C9F" width="4.824" height="3.781"/>
			<rect x="984.195" y="122.417" fill="#046C9F" width="4.824" height="3.78"/>
			<rect x="976.524" y="117.672" fill="#046C9F" width="4.822" height="3.781"/>
			<rect x="976.524" y="122.417" fill="#046C9F" width="4.822" height="3.78"/>
			<rect x="916.833" y="116.675" fill="#046C9F" width="4.823" height="3.782"/>
			<rect x="916.833" y="121.421" fill="#046C9F" width="4.823" height="3.781"/>
			<rect x="964.863" y="100.269" fill="#046C9F" width="4.822" height="3.783"/>
			<rect x="964.863" y="105.015" fill="#046C9F" width="4.822" height="3.781"/>
			<rect x="964.863" y="120.516" fill="#046C9F" width="4.822" height="5.998"/>
			<rect x="1010.59" y="96.926" fill="#046C9F" width="3.604" height="4.604"/>
			<rect x="1010.59" y="102.56" fill="#046C9F" width="3.604" height="4.604"/>
			<rect x="1015.533" y="96.926" fill="#046C9F" width="3.604" height="4.604"/>
			<rect x="1015.533" y="102.56" fill="#046C9F" width="3.604" height="4.604"/>
			<rect x="1059.995" y="134.76" fill="#046C9F" width="5.104" height="11.666"/>
			<rect x="962.408" y="137.239" fill="#046C9F" width="3.618" height="12.381"/>
			<rect x="967.274" y="137.239" fill="#046C9F" width="3.618" height="12.381"/>
			<polygon fill="#046C9F" points="1031.36,146.426 1028.281,146.426 1027.083,143.763 1027.083,133.429 1031.36,133.429 			"/>
			<polygon fill="#046C9F" points="934.053,149.38 937.132,149.38 938.331,147.165 938.331,138.571 934.053,138.571 			"/>
			<polygon fill="#046C9F" points="997.82,146.718 1000.901,146.718 1002.1,144.504 1002.1,135.908 997.82,135.908 			"/>
			<polygon fill="#046C9F" points="899.972,148.835 903.626,148.835 905.048,146.187 905.048,135.908 899.972,135.908 			"/>
			<path fill="#046C9F" d="M1002.775,134.879c0-1.391-1.128-2.518-2.518-2.518s-2.518,1.127-2.518,2.518H1002.775z"/>
			<path fill="#046C9F" d="M1065.063,133.811c0-1.39-1.126-2.518-2.516-2.518s-2.518,1.128-2.518,2.518H1065.063z"/>
			<rect x="826.91" y="115.399" fill="#046C9F" width="4.277" height="4.106"/>
			<rect x="809.884" y="133.854" fill="#046C9F" width="8.817" height="9.576"/>
			<rect x="743.585" y="138.571" fill="#046C9F" width="8.284" height="7.528"/>
			<rect x="826.91" y="120.516" fill="#046C9F" width="4.277" height="4.107"/>
			<rect x="859.037" y="115.903" fill="#046C9F" width="3.093" height="4.108"/>
			<rect x="859.037" y="121.021" fill="#046C9F" width="3.093" height="4.107"/>
			<rect x="869.023" y="134.811" fill="#046C9F" width="2.302" height="4.108"/>
			<rect x="869.023" y="139.928" fill="#046C9F" width="2.302" height="4.107"/>
			<rect x="876.997" y="134.811" fill="#046C9F" width="2.301" height="4.108"/>
			<rect x="876.997" y="139.928" fill="#046C9F" width="2.301" height="4.107"/>
			<rect x="841.3" y="113.593" fill="#046C9F" width="4.279" height="4.107"/>
			<rect x="841.3" y="118.709" fill="#046C9F" width="4.279" height="4.108"/>
			<rect x="847.182" y="113.593" fill="#046C9F" width="4.278" height="4.107"/>
			<rect x="847.182" y="118.709" fill="#046C9F" width="4.278" height="4.108"/>
			<rect x="841.164" y="135.315" fill="#046C9F" width="4.278" height="4.107"/>
			<rect x="841.164" y="131.249" fill="#046C9F" width="10.16" height="2.605"/>
			<rect x="841.164" y="140.432" fill="#046C9F" width="4.278" height="4.108"/>
			<rect x="847.045" y="135.315" fill="#046C9F" width="4.279" height="4.107"/>
			<rect x="847.045" y="140.432" fill="#046C9F" width="4.279" height="4.108"/>
			<rect x="815.097" y="111.57" fill="#046C9F" width="3.604" height="4.604"/>
			<rect x="815.097" y="117.204" fill="#046C9F" width="3.604" height="4.604"/>
			<rect x="809.218" y="111.57" fill="#046C9F" width="3.604" height="4.604"/>
			<rect x="809.218" y="117.204" fill="#046C9F" width="3.604" height="4.604"/>
			<rect x="741.784" y="114.772" fill="#046C9F" width="4.228" height="4.604"/>
			<rect x="741.784" y="120.406" fill="#046C9F" width="4.228" height="4.604"/>
			<rect x="731.932" y="116.969" fill="#046C9F" width="4.228" height="4.119"/>
			<rect x="731.932" y="122.078" fill="#046C9F" width="4.228" height="4.119"/>
			<rect x="731.133" y="99.776" fill="#046C9F" width="5.826" height="4.12"/>
			<rect x="731.133" y="104.888" fill="#046C9F" width="5.826" height="4.119"/>
			<rect x="749.09" y="114.772" fill="#046C9F" width="4.228" height="4.604"/>
			<rect x="749.09" y="120.406" fill="#046C9F" width="4.228" height="4.604"/>
			<rect x="746.012" y="96.926" fill="#046C9F" width="4.228" height="4.516"/>
			<rect x="746.012" y="102.464" fill="#046C9F" width="4.228" height="4.515"/>
			<rect x="782.824" y="117.672" fill="#046C9F" width="4.823" height="3.781"/>
			<rect x="782.824" y="122.417" fill="#046C9F" width="4.823" height="3.78"/>
			<rect x="775.152" y="117.672" fill="#046C9F" width="4.823" height="3.781"/>
			<rect x="775.152" y="122.417" fill="#046C9F" width="4.823" height="3.78"/>
			<rect x="763.492" y="100.269" fill="#046C9F" width="4.823" height="3.783"/>
			<rect x="763.492" y="105.015" fill="#046C9F" width="4.823" height="3.781"/>
			<rect x="763.492" y="120.516" fill="#046C9F" width="4.823" height="5.998"/>
			<rect x="809.218" y="96.926" fill="#046C9F" width="3.604" height="4.604"/>
			<rect x="809.218" y="102.56" fill="#046C9F" width="3.604" height="4.604"/>
			<rect x="814.162" y="96.926" fill="#046C9F" width="3.604" height="4.604"/>
			<rect x="814.162" y="102.56" fill="#046C9F" width="3.604" height="4.604"/>
			<rect x="858.623" y="134.76" fill="#046C9F" width="5.106" height="11.666"/>
			<rect x="761.037" y="137.239" fill="#046C9F" width="3.618" height="12.381"/>
			<rect x="765.903" y="137.239" fill="#046C9F" width="3.618" height="12.381"/>
			<polygon fill="#046C9F" points="829.989,146.426 826.91,146.426 825.711,143.763 825.711,133.429 829.989,133.429 			"/>
			<polygon fill="#046C9F" points="732.681,149.38 735.761,149.38 736.959,147.165 736.959,138.571 732.681,138.571 			"/>
			<polygon fill="#046C9F" points="796.45,146.718 799.529,146.718 800.728,144.504 800.728,135.908 796.45,135.908 			"/>
			<path fill="#046C9F" d="M801.403,134.879c0-1.391-1.127-2.518-2.517-2.518c-1.39,0-2.518,1.127-2.518,2.518H801.403z"/>
			<path fill="#046C9F" d="M863.692,133.811c0-1.39-1.127-2.518-2.517-2.518c-1.39,0-2.518,1.128-2.518,2.518H863.692z"/>
		</g>
		<g>
			<path fill="#00354E" d="M1452.328,108.041h-3.774v-2.742h-3.594l-8.385-10.609l-7.188,9.582l-7.789,0.812v-2.18l-1.624-0.856
				l-9.756-10.61v-1.712h-1.611v-1.196h-1.125v0.854l-1.369,1.369v1.198l-6.675,11.98v1.368l-7.359-0.342h-1.199v-1.197
				l-1.739-0.634l0.027-9.977l0.855-0.515l1.028-1.883l-2.053-1.196v-2.055l-0.857,0.171l-0.17-1.883h1.027v-1.71h-1.541
				l-0.343-2.226l-3.936,0.171l-0.171,1.711l-4.108-3.251h-2.738l-3.509,2.909l-13.604,0.514l-0.686-1.197h-2.053l1.027,7.529
				h-34.397l-5.819-10.952h-2.396l-11.637,10.096l-27.553,0.856l-2.567-1.711h-2.909l-3.936-3.577l-3.937-0.188l-0.064,2.956
				l-6.097-5.351l-0.685-5.477l-0.684,4.792l-3.361,1.025v25.331h-4.114v-2.742h-3.594l-8.385-10.609l-7.188,9.582l-7.79,0.812
				v-2.18l-1.623-0.856l-9.755-10.61v-1.712h-1.612v-1.196h-1.126v0.854l-1.369,1.369v1.198l-6.675,11.98v1.368l-7.358-0.342h-1.198
				v-1.197l-1.74-0.634l0.027-9.977l0.854-0.515l1.028-1.883l-2.054-1.196v-2.055l-0.855,0.171l-0.171-1.883h1.026v-1.71h-1.541
				l-0.343-2.226l-3.936,0.171l-0.17,1.711l-4.108-3.251h-2.739l-3.508,2.909l-13.605,0.514l-0.685-1.197h-2.053l1.027,7.529
				h-34.396l-5.819-10.952h-2.396l-11.637,10.096l-13.499,0.42L1088.156,154h257.649h16.862h89.661V108.041z M1144.441,145.494
				h-4.65v-4.702h4.65V145.494z M1144.441,139.838h-4.65v-4.699h4.65V139.838z M1150.072,145.494h-4.678v-4.702h4.678V145.494z
				 M1150.072,139.838h-4.678v-4.699h4.678V139.838z M1163.847,122.817h-3.604v-7.418h3.604V122.817z M1163.847,106.27h-3.604
				v-7.419h3.604V106.27z M1219.799,152.643h-0.171v-3.703h0.171V152.643z M1219.799,146.886h-0.171v-37.993l0.171-0.244V146.886z
				 M1234.781,123.321h-2.302v-4.107h2.302V123.321z M1234.781,118.205h-2.302v-4.108h2.302V118.205z M1242.754,123.321h-2.301
				v-4.107h2.301V123.321z M1242.754,118.205h-2.301v-4.108h2.301V118.205z M1277.439,125.202h-4.823v-3.487h4.823V125.202z
				 M1277.439,120.761h-4.823v-3.426h4.823V120.761z M1345.582,145.494h-4.42v-4.702h4.42V145.494z M1345.582,139.838h-4.42v-4.699
				h4.42V139.838z M1351.443,145.494h-4.823v-4.702h4.823V145.494z M1351.443,139.838h-4.823v-4.699h4.823V139.838z
				 M1365.218,122.817h-3.604v-7.418h3.604V122.817z M1365.218,106.27h-3.604v-7.419h3.604V106.27z M1421.171,150.265l-0.171-0.003
				v-1.322h0.171V150.265z M1421.171,146.886H1421v-37.993l0.171-0.244V146.886z M1436.152,123.321h-2.302v-4.107h2.302V123.321z
				 M1436.152,118.205h-2.302v-4.108h2.302V118.205z M1444.125,123.321h-2.301v-4.107h2.301V123.321z M1444.125,118.205h-2.301
				v-4.108h2.301V118.205z"/>
			<rect x="1391.737" y="115.399" fill="#046C9F" width="4.277" height="4.106"/>
			<rect x="1374.711" y="133.854" fill="#046C9F" width="8.817" height="9.576"/>
			<rect x="1308.413" y="138.571" fill="#046C9F" width="8.284" height="7.528"/>
			<rect x="1273.297" y="134.807" fill="#046C9F" width="9.402" height="10.688"/>
			<rect x="1391.737" y="120.516" fill="#046C9F" width="4.277" height="4.107"/>
			<rect x="1423.864" y="115.903" fill="#046C9F" width="3.094" height="4.108"/>
			<rect x="1423.864" y="121.021" fill="#046C9F" width="3.094" height="4.107"/>
			<rect x="1433.851" y="134.811" fill="#046C9F" width="2.302" height="4.108"/>
			<rect x="1433.851" y="139.928" fill="#046C9F" width="2.302" height="4.107"/>
			<rect x="1441.824" y="134.811" fill="#046C9F" width="2.301" height="4.108"/>
			<rect x="1441.824" y="139.928" fill="#046C9F" width="2.301" height="4.107"/>
			<rect x="1406.128" y="113.593" fill="#046C9F" width="4.278" height="4.107"/>
			<rect x="1406.128" y="118.709" fill="#046C9F" width="4.278" height="4.108"/>
			<rect x="1412.008" y="113.593" fill="#046C9F" width="4.279" height="4.107"/>
			<rect x="1412.008" y="118.709" fill="#046C9F" width="4.279" height="4.108"/>
			<rect x="1405.991" y="135.315" fill="#046C9F" width="4.278" height="4.107"/>
			<rect x="1405.991" y="131.249" fill="#046C9F" width="10.16" height="2.605"/>
			<rect x="1405.991" y="140.432" fill="#046C9F" width="4.278" height="4.108"/>
			<rect x="1411.872" y="135.315" fill="#046C9F" width="4.279" height="4.107"/>
			<rect x="1411.872" y="140.432" fill="#046C9F" width="4.279" height="4.108"/>
			<rect x="1379.924" y="111.57" fill="#046C9F" width="3.604" height="4.604"/>
			<rect x="1379.924" y="117.204" fill="#046C9F" width="3.604" height="4.604"/>
			<rect x="1374.045" y="111.57" fill="#046C9F" width="3.604" height="4.604"/>
			<rect x="1374.045" y="117.204" fill="#046C9F" width="3.604" height="4.604"/>
			<rect x="1306.611" y="114.772" fill="#046C9F" width="4.228" height="4.604"/>
			<rect x="1306.611" y="120.406" fill="#046C9F" width="4.228" height="4.604"/>
			<rect x="1296.76" y="116.969" fill="#046C9F" width="4.228" height="4.119"/>
			<rect x="1296.76" y="122.078" fill="#046C9F" width="4.228" height="4.119"/>
			<rect x="1265.075" y="116.862" fill="#046C9F" width="4.228" height="4.121"/>
			<rect x="1265.075" y="121.974" fill="#046C9F" width="4.228" height="4.119"/>
			<rect x="1252.412" y="113.012" fill="#046C9F" width="4.228" height="4.12"/>
			<rect x="1252.412" y="118.123" fill="#046C9F" width="4.228" height="4.119"/>
			<rect x="1251.295" y="132.296" fill="#046C9F" width="4.228" height="5.034"/>
			<rect x="1251.295" y="138.395" fill="#046C9F" width="4.228" height="5.036"/>
			<rect x="1266.39" y="99.611" fill="#046C9F" width="4.229" height="4.12"/>
			<rect x="1266.39" y="104.723" fill="#046C9F" width="4.229" height="4.119"/>
			<rect x="1295.96" y="99.776" fill="#046C9F" width="5.826" height="4.12"/>
			<rect x="1295.96" y="104.888" fill="#046C9F" width="5.826" height="4.119"/>
			<rect x="1313.917" y="114.772" fill="#046C9F" width="4.228" height="4.604"/>
			<rect x="1313.917" y="120.406" fill="#046C9F" width="4.228" height="4.604"/>
			<rect x="1310.839" y="96.926" fill="#046C9F" width="4.229" height="4.516"/>
			<rect x="1310.839" y="102.464" fill="#046C9F" width="4.229" height="4.515"/>
			<rect x="1347.651" y="117.672" fill="#046C9F" width="4.823" height="3.781"/>
			<rect x="1347.651" y="122.417" fill="#046C9F" width="4.823" height="3.78"/>
			<rect x="1339.98" y="117.672" fill="#046C9F" width="4.822" height="3.781"/>
			<rect x="1339.98" y="122.417" fill="#046C9F" width="4.822" height="3.78"/>
			<rect x="1280.288" y="116.675" fill="#046C9F" width="4.823" height="3.782"/>
			<rect x="1280.288" y="121.421" fill="#046C9F" width="4.823" height="3.781"/>
			<rect x="1328.319" y="100.269" fill="#046C9F" width="4.822" height="3.783"/>
			<rect x="1328.319" y="105.015" fill="#046C9F" width="4.822" height="3.781"/>
			<rect x="1328.319" y="120.516" fill="#046C9F" width="4.822" height="5.998"/>
			<rect x="1374.045" y="96.926" fill="#046C9F" width="3.604" height="4.604"/>
			<rect x="1374.045" y="102.56" fill="#046C9F" width="3.604" height="4.604"/>
			<rect x="1378.989" y="96.926" fill="#046C9F" width="3.604" height="4.604"/>
			<rect x="1378.989" y="102.56" fill="#046C9F" width="3.604" height="4.604"/>
			<rect x="1423.45" y="134.76" fill="#046C9F" width="5.104" height="11.666"/>
			<rect x="1325.863" y="137.239" fill="#046C9F" width="3.619" height="12.381"/>
			<rect x="1330.729" y="137.239" fill="#046C9F" width="3.619" height="12.381"/>
			<polygon fill="#046C9F" points="1394.816,146.426 1391.737,146.426 1390.539,143.763 1390.539,133.429 1394.816,133.429 			"/>
			<polygon fill="#046C9F" points="1297.509,149.38 1300.588,149.38 1301.787,147.165 1301.787,138.571 1297.509,138.571 			"/>
			<polygon fill="#046C9F" points="1361.276,146.718 1364.357,146.718 1365.556,144.504 1365.556,135.908 1361.276,135.908 			"/>
			<polygon fill="#046C9F" points="1263.427,148.835 1267.082,148.835 1268.504,146.187 1268.504,135.908 1263.427,135.908 			"/>
			<path fill="#046C9F" d="M1366.231,134.879c0-1.391-1.128-2.518-2.518-2.518s-2.518,1.127-2.518,2.518H1366.231z"/>
			<path fill="#046C9F" d="M1428.519,133.811c0-1.39-1.126-2.518-2.516-2.518s-2.518,1.128-2.518,2.518H1428.519z"/>
			<rect x="1190.365" y="115.399" fill="#046C9F" width="4.277" height="4.106"/>
			<rect x="1173.339" y="133.854" fill="#046C9F" width="8.817" height="9.576"/>
			<rect x="1107.041" y="138.571" fill="#046C9F" width="8.284" height="7.528"/>
			<rect x="1190.365" y="120.516" fill="#046C9F" width="4.277" height="4.107"/>
			<rect x="1222.493" y="115.903" fill="#046C9F" width="3.093" height="4.108"/>
			<rect x="1222.493" y="121.021" fill="#046C9F" width="3.093" height="4.107"/>
			<rect x="1232.479" y="134.811" fill="#046C9F" width="2.302" height="4.108"/>
			<rect x="1232.479" y="139.928" fill="#046C9F" width="2.302" height="4.107"/>
			<rect x="1240.453" y="134.811" fill="#046C9F" width="2.301" height="4.108"/>
			<rect x="1240.453" y="139.928" fill="#046C9F" width="2.301" height="4.107"/>
			<rect x="1204.755" y="113.593" fill="#046C9F" width="4.279" height="4.107"/>
			<rect x="1204.755" y="118.709" fill="#046C9F" width="4.279" height="4.108"/>
			<rect x="1210.637" y="113.593" fill="#046C9F" width="4.279" height="4.107"/>
			<rect x="1210.637" y="118.709" fill="#046C9F" width="4.279" height="4.108"/>
			<rect x="1204.62" y="135.315" fill="#046C9F" width="4.278" height="4.107"/>
			<rect x="1204.62" y="131.249" fill="#046C9F" width="10.16" height="2.605"/>
			<rect x="1204.62" y="140.432" fill="#046C9F" width="4.278" height="4.108"/>
			<rect x="1210.501" y="135.315" fill="#046C9F" width="4.279" height="4.107"/>
			<rect x="1210.501" y="140.432" fill="#046C9F" width="4.279" height="4.108"/>
			<rect x="1178.552" y="111.57" fill="#046C9F" width="3.604" height="4.604"/>
			<rect x="1178.552" y="117.204" fill="#046C9F" width="3.604" height="4.604"/>
			<rect x="1172.674" y="111.57" fill="#046C9F" width="3.604" height="4.604"/>
			<rect x="1172.674" y="117.204" fill="#046C9F" width="3.604" height="4.604"/>
			<rect x="1105.239" y="114.772" fill="#046C9F" width="4.228" height="4.604"/>
			<rect x="1105.239" y="120.406" fill="#046C9F" width="4.228" height="4.604"/>
			<rect x="1095.388" y="116.969" fill="#046C9F" width="4.229" height="4.119"/>
			<rect x="1095.388" y="122.078" fill="#046C9F" width="4.229" height="4.119"/>
			<rect x="1094.589" y="99.776" fill="#046C9F" width="5.826" height="4.12"/>
			<rect x="1094.589" y="104.888" fill="#046C9F" width="5.826" height="4.119"/>
			<rect x="1112.546" y="114.772" fill="#046C9F" width="4.228" height="4.604"/>
			<rect x="1112.546" y="120.406" fill="#046C9F" width="4.228" height="4.604"/>
			<rect x="1109.467" y="96.926" fill="#046C9F" width="4.228" height="4.516"/>
			<rect x="1109.467" y="102.464" fill="#046C9F" width="4.228" height="4.515"/>
			<rect x="1146.28" y="117.672" fill="#046C9F" width="4.823" height="3.781"/>
			<rect x="1146.28" y="122.417" fill="#046C9F" width="4.823" height="3.78"/>
			<rect x="1138.608" y="117.672" fill="#046C9F" width="4.823" height="3.781"/>
			<rect x="1138.608" y="122.417" fill="#046C9F" width="4.823" height="3.78"/>
			<rect x="1126.947" y="100.269" fill="#046C9F" width="4.823" height="3.783"/>
			<rect x="1126.947" y="105.015" fill="#046C9F" width="4.823" height="3.781"/>
			<rect x="1126.947" y="120.516" fill="#046C9F" width="4.823" height="5.998"/>
			<rect x="1172.674" y="96.926" fill="#046C9F" width="3.604" height="4.604"/>
			<rect x="1172.674" y="102.56" fill="#046C9F" width="3.604" height="4.604"/>
			<rect x="1177.618" y="96.926" fill="#046C9F" width="3.604" height="4.604"/>
			<rect x="1177.618" y="102.56" fill="#046C9F" width="3.604" height="4.604"/>
			<rect x="1222.079" y="134.76" fill="#046C9F" width="5.105" height="11.666"/>
			<rect x="1124.492" y="137.239" fill="#046C9F" width="3.618" height="12.381"/>
			<rect x="1129.359" y="137.239" fill="#046C9F" width="3.618" height="12.381"/>
			<polygon fill="#046C9F" points="1193.444,146.426 1190.365,146.426 1189.167,143.763 1189.167,133.429 1193.444,133.429 			"/>
			<polygon fill="#046C9F" points="1096.137,149.38 1099.216,149.38 1100.415,147.165 1100.415,138.571 1096.137,138.571 			"/>
			<polygon fill="#046C9F" points="1159.905,146.718 1162.985,146.718 1164.184,144.504 1164.184,135.908 1159.905,135.908 			"/>
			<path fill="#046C9F" d="M1164.859,134.879c0-1.391-1.127-2.518-2.518-2.518c-1.39,0-2.518,1.127-2.518,2.518H1164.859z"/>
			<path fill="#046C9F" d="M1227.148,133.811c0-1.39-1.127-2.518-2.517-2.518c-1.39,0-2.518,1.128-2.518,2.518H1227.148z"/>
		</g>
	</g>
	<g>
		<path fill="#00354E" d="M362.795,108.041h-3.774v-2.742h-3.594l-8.386-10.609l-7.188,9.582l-7.789,0.812v-2.18l-1.625-0.856
			l-9.755-10.61v-1.712h-1.611v-1.196h-1.125v0.854l-1.369,1.369v1.198l-6.675,11.98v1.368l-7.359-0.342h-1.199v-1.197l-1.739-0.634
			l0.027-9.977l0.854-0.515l1.029-1.883l-2.054-1.196v-2.055l-0.857,0.171l-0.17-1.883h1.027v-1.71h-1.54l-0.343-2.226l-3.936,0.171
			l-0.171,1.711l-4.108-3.251h-2.738l-3.509,2.909l-13.604,0.514l-0.685-1.197h-2.053l1.027,7.529h-34.397l-5.818-10.952h-2.396
			l-11.637,10.096l-27.553,0.856l-2.567-1.711h-2.909l-3.936-3.577l-3.937-0.188l-0.064,2.956l-6.097-5.351l-0.685-5.477
			l-0.685,4.792l-3.361,1.025v25.331h-4.114v-2.742h-3.594l-8.385-10.609l-7.188,9.582l-7.79,0.812v-2.18l-1.623-0.856l-9.755-10.61
			v-1.712h-1.612v-1.196h-1.126v0.854l-1.368,1.369v1.198l-6.675,11.98v1.368l-7.358-0.342h-1.199v-1.197l-1.74-0.634l0.027-9.977
			l0.854-0.515l1.029-1.883l-2.054-1.196v-2.055l-0.855,0.171l-0.17-1.883h1.026v-1.71h-1.54l-0.343-2.226l-3.936,0.171
			l-0.171,1.711l-4.107-3.251h-2.739l-3.508,2.909l-13.605,0.514l-0.685-1.197h-2.053l1.027,7.529H32.035l-5.818-10.952h-2.396
			L12.184,89.383l-13.499,0.42L-1.377,154h257.65h16.862h89.661V108.041z M54.908,145.494h-4.65v-4.702h4.65V145.494z
			 M54.908,139.838h-4.65v-4.699h4.65V139.838z M60.539,145.494h-4.677v-4.702h4.677V145.494z M60.539,139.838h-4.677v-4.699h4.677
			V139.838z M74.314,122.817H70.71v-7.418h3.604V122.817z M74.314,106.27H70.71v-7.419h3.604V106.27z M130.267,152.643h-0.171
			v-3.703h0.171V152.643z M130.267,146.886h-0.171v-37.993l0.171-0.244V146.886z M145.249,123.321h-2.302v-4.107h2.302V123.321z
			 M145.249,118.205h-2.302v-4.108h2.302V118.205z M153.221,123.321h-2.301v-4.107h2.301V123.321z M153.221,118.205h-2.301v-4.108
			h2.301V118.205z M187.907,125.202h-4.824v-3.487h4.824V125.202z M187.907,120.761h-4.824v-3.426h4.824V120.761z M256.049,145.494
			h-4.42v-4.702h4.42V145.494z M256.049,139.838h-4.42v-4.699h4.42V139.838z M261.911,145.494h-4.823v-4.702h4.823V145.494z
			 M261.911,139.838h-4.823v-4.699h4.823V139.838z M275.685,122.817h-3.604v-7.418h3.604V122.817z M275.685,106.27h-3.604v-7.419
			h3.604V106.27z M331.638,150.265l-0.171-0.003v-1.322h0.171V150.265z M331.638,146.886h-0.171v-37.993l0.171-0.244V146.886z
			 M346.62,123.321h-2.302v-4.107h2.302V123.321z M346.62,118.205h-2.302v-4.108h2.302V118.205z M354.593,123.321h-2.301v-4.107
			h2.301V123.321z M354.593,118.205h-2.301v-4.108h2.301V118.205z"/>
		<rect x="302.204" y="115.399" fill="#046C9F" width="4.277" height="4.106"/>
		<rect x="285.178" y="133.854" fill="#046C9F" width="8.817" height="9.576"/>
		<rect x="218.88" y="138.571" fill="#046C9F" width="8.284" height="7.528"/>
		<rect x="183.765" y="134.807" fill="#046C9F" width="9.402" height="10.688"/>
		<rect x="302.204" y="120.516" fill="#046C9F" width="4.277" height="4.107"/>
		<rect x="334.331" y="115.903" fill="#046C9F" width="3.094" height="4.108"/>
		<rect x="334.331" y="121.021" fill="#046C9F" width="3.094" height="4.107"/>
		<rect x="344.317" y="134.811" fill="#046C9F" width="2.302" height="4.108"/>
		<rect x="344.317" y="139.928" fill="#046C9F" width="2.302" height="4.107"/>
		<rect x="352.292" y="134.811" fill="#046C9F" width="2.301" height="4.108"/>
		<rect x="352.292" y="139.928" fill="#046C9F" width="2.301" height="4.107"/>
		<rect x="316.595" y="113.593" fill="#046C9F" width="4.278" height="4.107"/>
		<rect x="316.595" y="118.709" fill="#046C9F" width="4.278" height="4.108"/>
		<rect x="322.476" y="113.593" fill="#046C9F" width="4.278" height="4.107"/>
		<rect x="322.476" y="118.709" fill="#046C9F" width="4.278" height="4.108"/>
		<rect x="316.458" y="135.315" fill="#046C9F" width="4.279" height="4.107"/>
		<rect x="316.458" y="131.249" fill="#046C9F" width="10.161" height="2.605"/>
		<rect x="316.458" y="140.432" fill="#046C9F" width="4.279" height="4.108"/>
		<rect x="322.339" y="135.315" fill="#046C9F" width="4.28" height="4.107"/>
		<rect x="322.339" y="140.432" fill="#046C9F" width="4.28" height="4.108"/>
		<rect x="290.391" y="111.57" fill="#046C9F" width="3.604" height="4.604"/>
		<rect x="290.391" y="117.204" fill="#046C9F" width="3.604" height="4.604"/>
		<rect x="284.513" y="111.57" fill="#046C9F" width="3.604" height="4.604"/>
		<rect x="284.513" y="117.204" fill="#046C9F" width="3.604" height="4.604"/>
		<rect x="217.078" y="114.772" fill="#046C9F" width="4.228" height="4.604"/>
		<rect x="217.078" y="120.406" fill="#046C9F" width="4.228" height="4.604"/>
		<rect x="207.227" y="116.969" fill="#046C9F" width="4.229" height="4.119"/>
		<rect x="207.227" y="122.078" fill="#046C9F" width="4.229" height="4.119"/>
		<rect x="175.542" y="116.862" fill="#046C9F" width="4.228" height="4.121"/>
		<rect x="175.542" y="121.974" fill="#046C9F" width="4.228" height="4.119"/>
		<rect x="162.879" y="113.012" fill="#046C9F" width="4.228" height="4.12"/>
		<rect x="162.879" y="118.123" fill="#046C9F" width="4.228" height="4.119"/>
		<rect x="161.763" y="132.296" fill="#046C9F" width="4.228" height="5.034"/>
		<rect x="161.763" y="138.395" fill="#046C9F" width="4.228" height="5.036"/>
		<rect x="176.857" y="99.611" fill="#046C9F" width="4.228" height="4.12"/>
		<rect x="176.857" y="104.723" fill="#046C9F" width="4.228" height="4.119"/>
		<rect x="206.428" y="99.776" fill="#046C9F" width="5.826" height="4.12"/>
		<rect x="206.428" y="104.888" fill="#046C9F" width="5.826" height="4.119"/>
		<rect x="224.384" y="114.772" fill="#046C9F" width="4.228" height="4.604"/>
		<rect x="224.384" y="120.406" fill="#046C9F" width="4.228" height="4.604"/>
		<rect x="221.306" y="96.926" fill="#046C9F" width="4.228" height="4.516"/>
		<rect x="221.306" y="102.464" fill="#046C9F" width="4.228" height="4.515"/>
		<rect x="258.118" y="117.672" fill="#046C9F" width="4.824" height="3.781"/>
		<rect x="258.118" y="122.417" fill="#046C9F" width="4.824" height="3.78"/>
		<rect x="250.447" y="117.672" fill="#046C9F" width="4.822" height="3.781"/>
		<rect x="250.447" y="122.417" fill="#046C9F" width="4.822" height="3.78"/>
		<rect x="190.755" y="116.675" fill="#046C9F" width="4.823" height="3.782"/>
		<rect x="190.755" y="121.421" fill="#046C9F" width="4.823" height="3.781"/>
		<rect x="238.786" y="100.269" fill="#046C9F" width="4.822" height="3.783"/>
		<rect x="238.786" y="105.015" fill="#046C9F" width="4.822" height="3.781"/>
		<rect x="238.786" y="120.516" fill="#046C9F" width="4.822" height="5.998"/>
		<rect x="284.513" y="96.926" fill="#046C9F" width="3.604" height="4.604"/>
		<rect x="284.513" y="102.56" fill="#046C9F" width="3.604" height="4.604"/>
		<rect x="289.456" y="96.926" fill="#046C9F" width="3.604" height="4.604"/>
		<rect x="289.456" y="102.56" fill="#046C9F" width="3.604" height="4.604"/>
		<rect x="333.917" y="134.76" fill="#046C9F" width="5.104" height="11.666"/>
		<rect x="236.331" y="137.239" fill="#046C9F" width="3.618" height="12.381"/>
		<rect x="241.197" y="137.239" fill="#046C9F" width="3.618" height="12.381"/>
		<polygon fill="#046C9F" points="305.283,146.426 302.204,146.426 301.006,143.763 301.006,133.429 305.283,133.429 		"/>
		<polygon fill="#046C9F" points="207.976,149.38 211.055,149.38 212.254,147.165 212.254,138.571 207.976,138.571 		"/>
		<polygon fill="#046C9F" points="271.743,146.718 274.824,146.718 276.023,144.504 276.023,135.908 271.743,135.908 		"/>
		<polygon fill="#046C9F" points="173.895,148.835 177.549,148.835 178.971,146.187 178.971,135.908 173.895,135.908 		"/>
		<path fill="#046C9F" d="M276.698,134.879c0-1.391-1.128-2.518-2.518-2.518s-2.518,1.127-2.518,2.518H276.698z"/>
		<path fill="#046C9F" d="M338.986,133.811c0-1.39-1.126-2.518-2.516-2.518s-2.518,1.128-2.518,2.518H338.986z"/>
		<rect x="100.833" y="115.399" fill="#046C9F" width="4.277" height="4.106"/>
		<rect x="83.807" y="133.854" fill="#046C9F" width="8.817" height="9.576"/>
		<rect x="17.508" y="138.571" fill="#046C9F" width="8.284" height="7.528"/>
		<rect x="100.833" y="120.516" fill="#046C9F" width="4.277" height="4.107"/>
		<rect x="132.96" y="115.903" fill="#046C9F" width="3.093" height="4.108"/>
		<rect x="132.96" y="121.021" fill="#046C9F" width="3.093" height="4.107"/>
		<rect x="142.946" y="134.811" fill="#046C9F" width="2.302" height="4.108"/>
		<rect x="142.946" y="139.928" fill="#046C9F" width="2.302" height="4.107"/>
		<rect x="150.92" y="134.811" fill="#046C9F" width="2.301" height="4.108"/>
		<rect x="150.92" y="139.928" fill="#046C9F" width="2.301" height="4.107"/>
		<rect x="115.223" y="113.593" fill="#046C9F" width="4.279" height="4.107"/>
		<rect x="115.223" y="118.709" fill="#046C9F" width="4.279" height="4.108"/>
		<rect x="121.104" y="113.593" fill="#046C9F" width="4.278" height="4.107"/>
		<rect x="121.104" y="118.709" fill="#046C9F" width="4.278" height="4.108"/>
		<rect x="115.087" y="135.315" fill="#046C9F" width="4.278" height="4.107"/>
		<rect x="115.087" y="131.249" fill="#046C9F" width="10.16" height="2.605"/>
		<rect x="115.087" y="140.432" fill="#046C9F" width="4.278" height="4.108"/>
		<rect x="120.968" y="135.315" fill="#046C9F" width="4.279" height="4.107"/>
		<rect x="120.968" y="140.432" fill="#046C9F" width="4.279" height="4.108"/>
		<rect x="89.02" y="111.57" fill="#046C9F" width="3.604" height="4.604"/>
		<rect x="89.02" y="117.204" fill="#046C9F" width="3.604" height="4.604"/>
		<rect x="83.141" y="111.57" fill="#046C9F" width="3.604" height="4.604"/>
		<rect x="83.141" y="117.204" fill="#046C9F" width="3.604" height="4.604"/>
		<rect x="15.707" y="114.772" fill="#046C9F" width="4.228" height="4.604"/>
		<rect x="15.707" y="120.406" fill="#046C9F" width="4.228" height="4.604"/>
		<rect x="5.855" y="116.969" fill="#046C9F" width="4.228" height="4.119"/>
		<rect x="5.855" y="122.078" fill="#046C9F" width="4.228" height="4.119"/>
		<rect x="5.056" y="99.776" fill="#046C9F" width="5.826" height="4.12"/>
		<rect x="5.056" y="104.888" fill="#046C9F" width="5.826" height="4.119"/>
		<rect x="23.013" y="114.772" fill="#046C9F" width="4.228" height="4.604"/>
		<rect x="23.013" y="120.406" fill="#046C9F" width="4.228" height="4.604"/>
		<rect x="19.935" y="96.926" fill="#046C9F" width="4.228" height="4.516"/>
		<rect x="19.935" y="102.464" fill="#046C9F" width="4.228" height="4.515"/>
		<rect x="56.747" y="117.672" fill="#046C9F" width="4.823" height="3.781"/>
		<rect x="56.747" y="122.417" fill="#046C9F" width="4.823" height="3.78"/>
		<rect x="49.075" y="117.672" fill="#046C9F" width="4.823" height="3.781"/>
		<rect x="49.075" y="122.417" fill="#046C9F" width="4.823" height="3.78"/>
		<rect x="37.415" y="100.269" fill="#046C9F" width="4.823" height="3.783"/>
		<rect x="37.415" y="105.015" fill="#046C9F" width="4.823" height="3.781"/>
		<rect x="37.415" y="120.516" fill="#046C9F" width="4.823" height="5.998"/>
		<rect x="83.141" y="96.926" fill="#046C9F" width="3.604" height="4.604"/>
		<rect x="83.141" y="102.56" fill="#046C9F" width="3.604" height="4.604"/>
		<rect x="88.085" y="96.926" fill="#046C9F" width="3.604" height="4.604"/>
		<rect x="88.085" y="102.56" fill="#046C9F" width="3.604" height="4.604"/>
		<rect x="132.545" y="134.76" fill="#046C9F" width="5.106" height="11.666"/>
		<rect x="34.959" y="137.239" fill="#046C9F" width="3.618" height="12.381"/>
		<rect x="39.826" y="137.239" fill="#046C9F" width="3.618" height="12.381"/>
		<polygon fill="#046C9F" points="103.912,146.426 100.833,146.426 99.634,143.763 99.634,133.429 103.912,133.429 		"/>
		<polygon fill="#046C9F" points="6.604,149.38 9.684,149.38 10.882,147.165 10.882,138.571 6.604,138.571 		"/>
		<polygon fill="#046C9F" points="70.373,146.718 73.452,146.718 74.65,144.504 74.65,135.908 70.373,135.908 		"/>
		<path fill="#046C9F" d="M75.326,134.879c0-1.391-1.127-2.518-2.517-2.518c-1.39,0-2.518,1.127-2.518,2.518H75.326z"/>
		<path fill="#046C9F" d="M137.615,133.811c0-1.39-1.127-2.518-2.517-2.518c-1.39,0-2.518,1.128-2.518,2.518H137.615z"/>
	</g>
	<g>
		<path fill="#00354E" d="M726.25,108.041h-3.774v-2.742h-3.594l-8.385-10.609l-7.188,9.582l-7.789,0.812v-2.18l-1.624-0.856
			l-9.756-10.61v-1.712h-1.611v-1.196h-1.125v0.854l-1.369,1.369v1.198l-6.675,11.98v1.368l-7.359-0.342h-1.199v-1.197l-1.739-0.634
			l0.027-9.977l0.855-0.515l1.028-1.883l-2.053-1.196v-2.055l-0.857,0.171l-0.17-1.883h1.027v-1.71h-1.541l-0.343-2.226
			l-3.936,0.171l-0.171,1.711l-4.108-3.251h-2.738l-3.509,2.909l-13.604,0.514l-0.686-1.197h-2.053l1.027,7.529h-34.397
			l-5.819-10.952h-2.396l-11.637,10.096l-27.553,0.856l-2.567-1.711h-2.909l-3.936-3.577l-3.937-0.188l-0.064,2.956l-6.097-5.351
			l-0.685-5.477l-0.684,4.792l-3.361,1.025v25.331h-4.114v-2.742h-3.594l-8.385-10.609l-7.188,9.582l-7.79,0.812v-2.18l-1.623-0.856
			l-9.755-10.61v-1.712h-1.612v-1.196h-1.126v0.854l-1.369,1.369v1.198l-6.675,11.98v1.368l-7.358-0.342h-1.198v-1.197l-1.74-0.634
			l0.027-9.977l0.854-0.515l1.028-1.883l-2.054-1.196v-2.055l-0.855,0.171l-0.171-1.883h1.026v-1.71h-1.541l-0.343-2.226
			l-3.936,0.171l-0.17,1.711l-4.108-3.251h-2.739l-3.508,2.909l-13.605,0.514l-0.685-1.197h-2.053l1.027,7.529h-34.396
			l-5.819-10.952h-2.396L375.64,89.383l-13.499,0.42L362.079,154h257.649h16.862h89.661V108.041z M418.364,145.494h-4.65v-4.702
			h4.65V145.494z M418.364,139.838h-4.65v-4.699h4.65V139.838z M423.995,145.494h-4.678v-4.702h4.678V145.494z M423.995,139.838
			h-4.678v-4.699h4.678V139.838z M437.77,122.817h-3.604v-7.418h3.604V122.817z M437.77,106.27h-3.604v-7.419h3.604V106.27z
			 M493.722,152.643h-0.171v-3.703h0.171V152.643z M493.722,146.886h-0.171v-37.993l0.171-0.244V146.886z M508.704,123.321h-2.302
			v-4.107h2.302V123.321z M508.704,118.205h-2.302v-4.108h2.302V118.205z M516.677,123.321h-2.301v-4.107h2.301V123.321z
			 M516.677,118.205h-2.301v-4.108h2.301V118.205z M551.362,125.202h-4.823v-3.487h4.823V125.202z M551.362,120.761h-4.823v-3.426
			h4.823V120.761z M619.505,145.494h-4.42v-4.702h4.42V145.494z M619.505,139.838h-4.42v-4.699h4.42V139.838z M625.366,145.494
			h-4.823v-4.702h4.823V145.494z M625.366,139.838h-4.823v-4.699h4.823V139.838z M639.141,122.817h-3.604v-7.418h3.604V122.817z
			 M639.141,106.27h-3.604v-7.419h3.604V106.27z M695.094,150.265l-0.171-0.003v-1.322h0.171V150.265z M695.094,146.886h-0.171
			v-37.993l0.171-0.244V146.886z M710.075,123.321h-2.302v-4.107h2.302V123.321z M710.075,118.205h-2.302v-4.108h2.302V118.205z
			 M718.048,123.321h-2.301v-4.107h2.301V123.321z M718.048,118.205h-2.301v-4.108h2.301V118.205z"/>
		<rect x="665.66" y="115.399" fill="#046C9F" width="4.277" height="4.106"/>
		<rect x="648.634" y="133.854" fill="#046C9F" width="8.817" height="9.576"/>
		<rect x="582.336" y="138.571" fill="#046C9F" width="8.284" height="7.528"/>
		<rect x="547.22" y="134.807" fill="#046C9F" width="9.402" height="10.688"/>
		<rect x="665.66" y="120.516" fill="#046C9F" width="4.277" height="4.107"/>
		<rect x="697.787" y="115.903" fill="#046C9F" width="3.094" height="4.108"/>
		<rect x="697.787" y="121.021" fill="#046C9F" width="3.094" height="4.107"/>
		<rect x="707.773" y="134.811" fill="#046C9F" width="2.302" height="4.108"/>
		<rect x="707.773" y="139.928" fill="#046C9F" width="2.302" height="4.107"/>
		<rect x="715.747" y="134.811" fill="#046C9F" width="2.301" height="4.108"/>
		<rect x="715.747" y="139.928" fill="#046C9F" width="2.301" height="4.107"/>
		<rect x="680.051" y="113.593" fill="#046C9F" width="4.278" height="4.107"/>
		<rect x="680.051" y="118.709" fill="#046C9F" width="4.278" height="4.108"/>
		<rect x="685.931" y="113.593" fill="#046C9F" width="4.279" height="4.107"/>
		<rect x="685.931" y="118.709" fill="#046C9F" width="4.279" height="4.108"/>
		<rect x="679.914" y="135.315" fill="#046C9F" width="4.278" height="4.107"/>
		<rect x="679.914" y="131.249" fill="#046C9F" width="10.16" height="2.605"/>
		<rect x="679.914" y="140.432" fill="#046C9F" width="4.278" height="4.108"/>
		<rect x="685.795" y="135.315" fill="#046C9F" width="4.279" height="4.107"/>
		<rect x="685.795" y="140.432" fill="#046C9F" width="4.279" height="4.108"/>
		<rect x="653.847" y="111.57" fill="#046C9F" width="3.604" height="4.604"/>
		<rect x="653.847" y="117.204" fill="#046C9F" width="3.604" height="4.604"/>
		<rect x="647.968" y="111.57" fill="#046C9F" width="3.604" height="4.604"/>
		<rect x="647.968" y="117.204" fill="#046C9F" width="3.604" height="4.604"/>
		<rect x="580.534" y="114.772" fill="#046C9F" width="4.228" height="4.604"/>
		<rect x="580.534" y="120.406" fill="#046C9F" width="4.228" height="4.604"/>
		<rect x="570.683" y="116.969" fill="#046C9F" width="4.228" height="4.119"/>
		<rect x="570.683" y="122.078" fill="#046C9F" width="4.228" height="4.119"/>
		<rect x="538.998" y="116.862" fill="#046C9F" width="4.228" height="4.121"/>
		<rect x="538.998" y="121.974" fill="#046C9F" width="4.228" height="4.119"/>
		<rect x="526.334" y="113.012" fill="#046C9F" width="4.228" height="4.12"/>
		<rect x="526.334" y="118.123" fill="#046C9F" width="4.228" height="4.119"/>
		<rect x="525.218" y="132.296" fill="#046C9F" width="4.228" height="5.034"/>
		<rect x="525.218" y="138.395" fill="#046C9F" width="4.228" height="5.036"/>
		<rect x="540.313" y="99.611" fill="#046C9F" width="4.229" height="4.12"/>
		<rect x="540.313" y="104.723" fill="#046C9F" width="4.229" height="4.119"/>
		<rect x="569.883" y="99.776" fill="#046C9F" width="5.826" height="4.12"/>
		<rect x="569.883" y="104.888" fill="#046C9F" width="5.826" height="4.119"/>
		<rect x="587.84" y="114.772" fill="#046C9F" width="4.228" height="4.604"/>
		<rect x="587.84" y="120.406" fill="#046C9F" width="4.228" height="4.604"/>
		<rect x="584.762" y="96.926" fill="#046C9F" width="4.229" height="4.516"/>
		<rect x="584.762" y="102.464" fill="#046C9F" width="4.229" height="4.515"/>
		<rect x="621.574" y="117.672" fill="#046C9F" width="4.823" height="3.781"/>
		<rect x="621.574" y="122.417" fill="#046C9F" width="4.823" height="3.78"/>
		<rect x="613.903" y="117.672" fill="#046C9F" width="4.822" height="3.781"/>
		<rect x="613.903" y="122.417" fill="#046C9F" width="4.822" height="3.78"/>
		<rect x="554.211" y="116.675" fill="#046C9F" width="4.823" height="3.782"/>
		<rect x="554.211" y="121.421" fill="#046C9F" width="4.823" height="3.781"/>
		<rect x="602.242" y="100.269" fill="#046C9F" width="4.822" height="3.783"/>
		<rect x="602.242" y="105.015" fill="#046C9F" width="4.822" height="3.781"/>
		<rect x="602.242" y="120.516" fill="#046C9F" width="4.822" height="5.998"/>
		<rect x="647.968" y="96.926" fill="#046C9F" width="3.604" height="4.604"/>
		<rect x="647.968" y="102.56" fill="#046C9F" width="3.604" height="4.604"/>
		<rect x="652.912" y="96.926" fill="#046C9F" width="3.604" height="4.604"/>
		<rect x="652.912" y="102.56" fill="#046C9F" width="3.604" height="4.604"/>
		<rect x="697.373" y="134.76" fill="#046C9F" width="5.104" height="11.666"/>
		<rect x="599.786" y="137.239" fill="#046C9F" width="3.619" height="12.381"/>
		<rect x="604.652" y="137.239" fill="#046C9F" width="3.619" height="12.381"/>
		<polygon fill="#046C9F" points="668.739,146.426 665.66,146.426 664.462,143.763 664.462,133.429 668.739,133.429 		"/>
		<polygon fill="#046C9F" points="571.432,149.38 574.511,149.38 575.709,147.165 575.709,138.571 571.432,138.571 		"/>
		<polygon fill="#046C9F" points="635.199,146.718 638.28,146.718 639.479,144.504 639.479,135.908 635.199,135.908 		"/>
		<polygon fill="#046C9F" points="537.35,148.835 541.005,148.835 542.427,146.187 542.427,135.908 537.35,135.908 		"/>
		<path fill="#046C9F" d="M640.154,134.879c0-1.391-1.128-2.518-2.518-2.518s-2.518,1.127-2.518,2.518H640.154z"/>
		<path fill="#046C9F" d="M702.441,133.811c0-1.39-1.126-2.518-2.516-2.518s-2.518,1.128-2.518,2.518H702.441z"/>
		<rect x="464.288" y="115.399" fill="#046C9F" width="4.277" height="4.106"/>
		<rect x="447.262" y="133.854" fill="#046C9F" width="8.817" height="9.576"/>
		<rect x="380.964" y="138.571" fill="#046C9F" width="8.284" height="7.528"/>
		<rect x="464.288" y="120.516" fill="#046C9F" width="4.277" height="4.107"/>
		<rect x="496.416" y="115.903" fill="#046C9F" width="3.093" height="4.108"/>
		<rect x="496.416" y="121.021" fill="#046C9F" width="3.093" height="4.107"/>
		<rect x="506.402" y="134.811" fill="#046C9F" width="2.302" height="4.108"/>
		<rect x="506.402" y="139.928" fill="#046C9F" width="2.302" height="4.107"/>
		<rect x="514.375" y="134.811" fill="#046C9F" width="2.301" height="4.108"/>
		<rect x="514.375" y="139.928" fill="#046C9F" width="2.301" height="4.107"/>
		<rect x="478.678" y="113.593" fill="#046C9F" width="4.279" height="4.107"/>
		<rect x="478.678" y="118.709" fill="#046C9F" width="4.279" height="4.108"/>
		<rect x="484.56" y="113.593" fill="#046C9F" width="4.279" height="4.107"/>
		<rect x="484.56" y="118.709" fill="#046C9F" width="4.279" height="4.108"/>
		<rect x="478.543" y="135.315" fill="#046C9F" width="4.278" height="4.107"/>
		<rect x="478.543" y="131.249" fill="#046C9F" width="10.16" height="2.605"/>
		<rect x="478.543" y="140.432" fill="#046C9F" width="4.278" height="4.108"/>
		<rect x="484.424" y="135.315" fill="#046C9F" width="4.279" height="4.107"/>
		<rect x="484.424" y="140.432" fill="#046C9F" width="4.279" height="4.108"/>
		<rect x="452.475" y="111.57" fill="#046C9F" width="3.604" height="4.604"/>
		<rect x="452.475" y="117.204" fill="#046C9F" width="3.604" height="4.604"/>
		<rect x="446.597" y="111.57" fill="#046C9F" width="3.604" height="4.604"/>
		<rect x="446.597" y="117.204" fill="#046C9F" width="3.604" height="4.604"/>
		<rect x="379.162" y="114.772" fill="#046C9F" width="4.228" height="4.604"/>
		<rect x="379.162" y="120.406" fill="#046C9F" width="4.228" height="4.604"/>
		<rect x="369.311" y="116.969" fill="#046C9F" width="4.229" height="4.119"/>
		<rect x="369.311" y="122.078" fill="#046C9F" width="4.229" height="4.119"/>
		<rect x="368.512" y="99.776" fill="#046C9F" width="5.826" height="4.12"/>
		<rect x="368.512" y="104.888" fill="#046C9F" width="5.826" height="4.119"/>
		<rect x="386.469" y="114.772" fill="#046C9F" width="4.228" height="4.604"/>
		<rect x="386.469" y="120.406" fill="#046C9F" width="4.228" height="4.604"/>
		<rect x="383.39" y="96.926" fill="#046C9F" width="4.228" height="4.516"/>
		<rect x="383.39" y="102.464" fill="#046C9F" width="4.228" height="4.515"/>
		<rect x="420.203" y="117.672" fill="#046C9F" width="4.823" height="3.781"/>
		<rect x="420.203" y="122.417" fill="#046C9F" width="4.823" height="3.78"/>
		<rect x="412.531" y="117.672" fill="#046C9F" width="4.823" height="3.781"/>
		<rect x="412.531" y="122.417" fill="#046C9F" width="4.823" height="3.78"/>
		<rect x="400.87" y="100.269" fill="#046C9F" width="4.823" height="3.783"/>
		<rect x="400.87" y="105.015" fill="#046C9F" width="4.823" height="3.781"/>
		<rect x="400.87" y="120.516" fill="#046C9F" width="4.823" height="5.998"/>
		<rect x="446.597" y="96.926" fill="#046C9F" width="3.604" height="4.604"/>
		<rect x="446.597" y="102.56" fill="#046C9F" width="3.604" height="4.604"/>
		<rect x="451.541" y="96.926" fill="#046C9F" width="3.604" height="4.604"/>
		<rect x="451.541" y="102.56" fill="#046C9F" width="3.604" height="4.604"/>
		<rect x="496.001" y="134.76" fill="#046C9F" width="5.105" height="11.666"/>
		<rect x="398.415" y="137.239" fill="#046C9F" width="3.618" height="12.381"/>
		<rect x="403.282" y="137.239" fill="#046C9F" width="3.618" height="12.381"/>
		<polygon fill="#046C9F" points="467.367,146.426 464.288,146.426 463.09,143.763 463.09,133.429 467.367,133.429 		"/>
		<polygon fill="#046C9F" points="370.06,149.38 373.139,149.38 374.338,147.165 374.338,138.571 370.06,138.571 		"/>
		<polygon fill="#046C9F" points="433.828,146.718 436.908,146.718 438.106,144.504 438.106,135.908 433.828,135.908 		"/>
		<path fill="#046C9F" d="M438.782,134.879c0-1.391-1.127-2.518-2.518-2.518c-1.39,0-2.518,1.127-2.518,2.518H438.782z"/>
		<path fill="#046C9F" d="M501.071,133.811c0-1.39-1.127-2.518-2.517-2.518c-1.39,0-2.518,1.128-2.518,2.518H501.071z"/>
	</g>
</g>
</svg>
