<?xml version="1.0" encoding="utf-8"?>
<!-- Generator: Adobe Illustrator 15.1.0, SVG Export Plug-In . SVG Version: 6.00 Build 0)  -->
<!DOCTYPE svg PUBLIC "-//W3C//DTD SVG 1.1//EN" "http://www.w3.org/Graphics/SVG/1.1/DTD/svg11.dtd">
<svg version="1.1" id="Layer_1" xmlns="http://www.w3.org/2000/svg" xmlns:xlink="http://www.w3.org/1999/xlink" x="0px" y="0px"
	 width="560.332px" height="153.486px" viewBox="1451.668 0 560.332 153.486" enable-background="new 1451.668 0 560.332 153.486"
	 xml:space="preserve">
<g id="Layer_2" display="none">
	<rect x="1108.889" y="-124.188" display="inline" fill="#AAE0F3" width="912.139" height="376.878"/>
</g>
<g>
	<path fill="#00354E" d="M1451.668,154h257.648h16.862h90.152h197.045v-12.397h-15.473V98.334h2.018v-3.62h-13.244V86.9h-66.507
		v7.813h-13.243v3.62h2.02v43.269h-9.798l-10.334,2.705l-13.134,0.96V13.166h-0.021l-5.496-12.652l-5.498,12.652h-0.021v134.417
		l-0.854,0.188l-40.795,0.931l-6.667,0.352v-41.013h-4.268v-2.742h-3.594l-8.386-10.608l-7.188,9.582l-7.789,0.812v-2.18
		l-1.623-0.856l-9.756-10.609v-1.712h-1.61V88.53h-1.126v0.854l-1.369,1.369v1.198l-6.675,11.98v1.367l-7.358-0.342h-1.199v-1.197
		l-1.738-0.634l0.026-9.977l0.854-0.516l1.027-1.883l-2.053-1.195V87.5l-0.857,0.171l-0.17-1.883h1.027v-1.71h-1.541l-0.343-2.226
		l-3.937,0.171l-0.171,1.711l-4.108-3.251h-2.737l-3.51,2.909l-13.604,0.514l-0.686-1.197h-2.053l1.027,7.529h-34.397l-5.817-10.952
		h-2.396l-11.637,10.096l-27.554,0.856l-2.566-1.711h-2.91l-3.936-3.577l-3.938-0.188l-0.063,2.955l-6.098-5.351l-0.685-5.477
		l-0.686,4.792l-3.36,1.024v25.331h-4.114v-2.742h-3.593l-8.387-10.608l-7.188,9.582l-7.789,0.812v-2.18l-1.623-0.856l-9.756-10.609
		v-1.712h-1.612v-1.196h-1.126v0.854l-1.368,1.369v1.198l-6.675,11.979v1.368l-7.358-0.342h-1.197v-1.197l-1.74-0.634l0.026-9.977
		l0.854-0.516l1.029-1.883l-2.054-1.196v-2.055l-0.855,0.171l-0.171-1.883h1.026v-1.71h-1.541l-0.343-2.226l-3.936,0.171
		l-0.171,1.711l-4.107-3.251h-2.739l-3.508,2.909l-13.604,0.514l-0.686-1.197h-2.053l1.026,7.529h-34.396l-5.818-10.952h-2.396
		l-11.639,10.096l-13.498,0.42 M1513.584,139.838h-4.677v-4.698h4.677V139.838z M1507.953,135.139v4.698h-4.65v-4.698H1507.953z
		 M1503.303,140.792h4.65v4.702h-4.65V140.792z M1508.907,145.494v-4.702h4.677v4.702H1508.907z M1527.359,122.817h-3.604v-7.418
		h3.604V122.817z M1527.359,106.27h-3.604v-7.419h3.604V106.27z M1583.313,152.643h-0.172v-3.703h0.172V152.643z M1583.313,146.885
		h-0.172v-37.992l0.172-0.244V146.885z M1598.294,123.321h-2.303v-4.107h2.303V123.321z M1598.294,118.205h-2.303v-4.107h2.303
		V118.205z M1606.266,123.321h-2.301v-4.107h2.301V123.321z M1606.266,118.205h-2.301v-4.107h2.301V118.205z M1640.951,117.335
		v3.426h-4.823v-3.426H1640.951z M1636.128,125.202v-3.487h4.823v3.487H1636.128z M1714.956,135.139v4.698h-4.823v-4.698H1714.956z
		 M1709.094,135.139v4.698h-4.42v-4.698H1709.094z M1704.674,140.792h4.42v4.702h-4.42V140.792z M1710.133,145.494v-4.702h4.823
		v4.702H1710.133z M1728.73,122.817h-3.604v-7.418h3.604V122.817z M1728.73,106.27h-3.604v-7.419h3.604V106.27z M1784.684,150.265
		l-0.172-0.003v-1.322h0.172V150.265z M1784.684,146.885h-0.172v-37.992l0.172-0.244V146.885z M1799.665,123.321h-2.303v-4.107
		h2.303V123.321z M1799.665,118.205h-2.303v-4.107h2.303V118.205z M1807.638,123.321h-2.301v-4.107h2.301V123.321z
		 M1807.638,118.205h-2.301v-4.107h2.301V118.205z M1919.529,135.938h-4.98v-32.951h1.084v-0.811h2.813v0.811h1.085
		L1919.529,135.938L1919.529,135.938z M1929.923,135.938h-4.979v-32.951h1.085v-0.811h2.811v0.811h1.085L1929.923,135.938
		L1929.923,135.938z M1981.9,136.387h-4.98v-32.951h1.085v-0.812h2.811v0.812h1.086L1981.9,136.387L1981.9,136.387z
		 M1992.293,136.387h-4.98v-32.951h1.086v-0.812h2.811v0.812h1.085L1992.293,136.387L1992.293,136.387z"/>
	<polygon fill="#046C9F" points="1939.23,102.987 1939.23,102.178 1936.421,102.178 1936.421,102.987 1935.337,102.987 
		1935.337,135.938 1940.316,135.938 1940.316,102.987 	"/>
	<polygon fill="#046C9F" points="1949.625,102.987 1949.625,102.178 1946.814,102.178 1946.814,102.987 1945.729,102.987 
		1945.729,135.938 1950.712,135.938 1950.712,102.987 	"/>
	<polygon fill="#046C9F" points="1960.018,102.987 1960.018,102.178 1957.209,102.178 1957.209,102.987 1956.123,102.987 
		1956.123,135.938 1961.104,135.938 1961.104,102.987 	"/>
	<polygon fill="#046C9F" points="1970.411,102.987 1970.411,102.178 1967.604,102.178 1967.604,102.987 1966.52,102.987 
		1966.52,135.938 1971.496,135.938 1971.496,102.987 	"/>
	<rect x="1755.249" y="115.399" fill="#046C9F" width="4.276" height="4.105"/>
	<rect x="1738.223" y="133.854" fill="#046C9F" width="8.817" height="9.576"/>
	<rect x="1671.925" y="138.571" fill="#046C9F" width="8.284" height="7.528"/>
	<rect x="1636.811" y="134.807" fill="#046C9F" width="9.401" height="10.688"/>
	<rect x="1755.249" y="120.516" fill="#046C9F" width="4.276" height="4.106"/>
	<rect x="1787.376" y="115.903" fill="#046C9F" width="3.094" height="4.107"/>
	<rect x="1787.376" y="121.021" fill="#046C9F" width="3.094" height="4.106"/>
	<rect x="1797.362" y="134.811" fill="#046C9F" width="2.303" height="4.107"/>
	<rect x="1797.362" y="139.927" fill="#046C9F" width="2.303" height="4.107"/>
	<rect x="1805.337" y="134.811" fill="#046C9F" width="2.301" height="4.107"/>
	<rect x="1805.337" y="139.927" fill="#046C9F" width="2.301" height="4.107"/>
	<rect x="1769.64" y="113.593" fill="#046C9F" width="4.278" height="4.107"/>
	<rect x="1769.64" y="118.709" fill="#046C9F" width="4.278" height="4.108"/>
	<rect x="1775.521" y="113.593" fill="#046C9F" width="4.277" height="4.107"/>
	<rect x="1775.521" y="118.709" fill="#046C9F" width="4.277" height="4.108"/>
	<rect x="1769.503" y="135.315" fill="#046C9F" width="4.278" height="4.106"/>
	<rect x="1769.503" y="131.249" fill="#046C9F" width="10.161" height="2.605"/>
	<rect x="1769.503" y="140.432" fill="#046C9F" width="4.278" height="4.107"/>
	<rect x="1775.384" y="135.315" fill="#046C9F" width="4.28" height="4.106"/>
	<rect x="1775.384" y="140.432" fill="#046C9F" width="4.28" height="4.107"/>
	<rect x="1743.436" y="111.57" fill="#046C9F" width="3.604" height="4.604"/>
	<rect x="1743.436" y="117.204" fill="#046C9F" width="3.604" height="4.604"/>
	<rect x="1737.558" y="111.57" fill="#046C9F" width="3.604" height="4.604"/>
	<rect x="1737.558" y="117.204" fill="#046C9F" width="3.604" height="4.604"/>
	<rect x="1670.123" y="114.772" fill="#046C9F" width="4.229" height="4.604"/>
	<rect x="1670.123" y="120.406" fill="#046C9F" width="4.229" height="4.604"/>
	<rect x="1660.271" y="116.969" fill="#046C9F" width="4.229" height="4.119"/>
	<rect x="1660.271" y="122.078" fill="#046C9F" width="4.229" height="4.119"/>
	<rect x="1628.587" y="116.862" fill="#046C9F" width="4.229" height="4.121"/>
	<rect x="1628.587" y="121.974" fill="#046C9F" width="4.229" height="4.118"/>
	<rect x="1615.924" y="113.012" fill="#046C9F" width="4.229" height="4.119"/>
	<rect x="1615.924" y="118.123" fill="#046C9F" width="4.229" height="4.119"/>
	<rect x="1614.808" y="132.296" fill="#046C9F" width="4.229" height="5.034"/>
	<rect x="1614.808" y="138.395" fill="#046C9F" width="4.229" height="5.036"/>
	<rect x="1629.902" y="99.611" fill="#046C9F" width="4.228" height="4.12"/>
	<rect x="1629.902" y="104.723" fill="#046C9F" width="4.228" height="4.118"/>
	<rect x="1659.473" y="99.776" fill="#046C9F" width="5.826" height="4.12"/>
	<rect x="1659.473" y="104.888" fill="#046C9F" width="5.826" height="4.118"/>
	<rect x="1677.43" y="114.772" fill="#046C9F" width="4.229" height="4.604"/>
	<rect x="1677.43" y="120.406" fill="#046C9F" width="4.229" height="4.604"/>
	<rect x="1674.352" y="96.926" fill="#046C9F" width="4.229" height="4.517"/>
	<rect x="1674.352" y="102.464" fill="#046C9F" width="4.229" height="4.516"/>
	<rect x="1711.163" y="117.672" fill="#046C9F" width="4.824" height="3.781"/>
	<rect x="1711.163" y="122.417" fill="#046C9F" width="4.824" height="3.78"/>
	<rect x="1703.492" y="117.672" fill="#046C9F" width="4.822" height="3.781"/>
	<rect x="1703.492" y="122.417" fill="#046C9F" width="4.822" height="3.78"/>
	<rect x="1643.801" y="116.675" fill="#046C9F" width="4.822" height="3.782"/>
	<rect x="1643.801" y="121.421" fill="#046C9F" width="4.822" height="3.781"/>
	<rect x="1691.831" y="100.269" fill="#046C9F" width="4.822" height="3.782"/>
	<rect x="1691.831" y="105.015" fill="#046C9F" width="4.822" height="3.78"/>
	<rect x="1691.831" y="120.516" fill="#046C9F" width="4.822" height="5.998"/>
	<rect x="1737.558" y="96.926" fill="#046C9F" width="3.604" height="4.604"/>
	<rect x="1737.558" y="102.56" fill="#046C9F" width="3.604" height="4.604"/>
	<rect x="1742.501" y="96.926" fill="#046C9F" width="3.604" height="4.604"/>
	<rect x="1742.501" y="102.56" fill="#046C9F" width="3.604" height="4.604"/>
	<rect x="1786.962" y="134.76" fill="#046C9F" width="5.105" height="11.666"/>
	<rect x="1689.375" y="137.239" fill="#046C9F" width="3.619" height="12.381"/>
	<rect x="1694.242" y="137.239" fill="#046C9F" width="3.618" height="12.381"/>
	<polygon fill="#046C9F" points="1758.328,146.426 1755.249,146.426 1754.051,143.763 1754.051,133.429 1758.328,133.429 	"/>
	<polygon fill="#046C9F" points="1661.021,149.38 1664.101,149.38 1665.299,147.165 1665.299,138.571 1661.021,138.571 	"/>
	<polygon fill="#046C9F" points="1724.788,146.718 1727.869,146.718 1729.068,144.504 1729.068,135.908 1724.788,135.908 	"/>
	<polygon fill="#046C9F" points="1626.939,148.835 1630.594,148.835 1632.016,146.187 1632.016,135.908 1626.939,135.908 	"/>
	<path fill="#046C9F" d="M1729.743,134.879c0-1.391-1.128-2.518-2.519-2.518c-1.39,0-2.518,1.127-2.518,2.518H1729.743z"/>
	<path fill="#046C9F" d="M1792.031,133.811c0-1.391-1.127-2.519-2.518-2.519c-1.39,0-2.518,1.128-2.518,2.519H1792.031z"/>
	<rect x="1553.877" y="115.399" fill="#046C9F" width="4.277" height="4.105"/>
	<rect x="1536.852" y="133.854" fill="#046C9F" width="8.817" height="9.576"/>
	<rect x="1470.554" y="138.571" fill="#046C9F" width="8.284" height="7.528"/>
	<rect x="1553.877" y="120.516" fill="#046C9F" width="4.277" height="4.106"/>
	<rect x="1586.005" y="115.903" fill="#046C9F" width="3.093" height="4.107"/>
	<rect x="1586.005" y="121.021" fill="#046C9F" width="3.093" height="4.106"/>
	<rect x="1595.991" y="134.811" fill="#046C9F" width="2.303" height="4.107"/>
	<rect x="1595.991" y="139.927" fill="#046C9F" width="2.303" height="4.107"/>
	<rect x="1603.965" y="134.811" fill="#046C9F" width="2.301" height="4.107"/>
	<rect x="1603.965" y="139.927" fill="#046C9F" width="2.301" height="4.107"/>
	<rect x="1568.268" y="113.593" fill="#046C9F" width="4.279" height="4.107"/>
	<rect x="1568.268" y="118.709" fill="#046C9F" width="4.279" height="4.108"/>
	<rect x="1574.149" y="113.593" fill="#046C9F" width="4.277" height="4.107"/>
	<rect x="1574.149" y="118.709" fill="#046C9F" width="4.277" height="4.108"/>
	<rect x="1568.132" y="135.315" fill="#046C9F" width="4.278" height="4.106"/>
	<rect x="1568.132" y="131.249" fill="#046C9F" width="10.16" height="2.605"/>
	<rect x="1568.132" y="140.432" fill="#046C9F" width="4.278" height="4.107"/>
	<rect x="1574.014" y="135.315" fill="#046C9F" width="4.278" height="4.106"/>
	<rect x="1574.014" y="140.432" fill="#046C9F" width="4.278" height="4.107"/>
	<rect x="1542.064" y="111.57" fill="#046C9F" width="3.604" height="4.604"/>
	<rect x="1542.064" y="117.204" fill="#046C9F" width="3.604" height="4.604"/>
	<rect x="1536.186" y="111.57" fill="#046C9F" width="3.604" height="4.604"/>
	<rect x="1536.186" y="117.204" fill="#046C9F" width="3.604" height="4.604"/>
	<rect x="1468.752" y="114.772" fill="#046C9F" width="4.229" height="4.604"/>
	<rect x="1468.752" y="120.406" fill="#046C9F" width="4.229" height="4.604"/>
	<rect x="1458.9" y="116.969" fill="#046C9F" width="4.228" height="4.119"/>
	<rect x="1458.9" y="122.078" fill="#046C9F" width="4.228" height="4.119"/>
	<rect x="1458.101" y="99.776" fill="#046C9F" width="5.826" height="4.12"/>
	<rect x="1458.101" y="104.888" fill="#046C9F" width="5.826" height="4.118"/>
	<rect x="1476.058" y="114.772" fill="#046C9F" width="4.229" height="4.604"/>
	<rect x="1476.058" y="120.406" fill="#046C9F" width="4.229" height="4.604"/>
	<rect x="1472.979" y="96.926" fill="#046C9F" width="4.229" height="4.517"/>
	<rect x="1472.979" y="102.464" fill="#046C9F" width="4.229" height="4.516"/>
	<rect x="1509.792" y="117.672" fill="#046C9F" width="4.823" height="3.781"/>
	<rect x="1509.792" y="122.417" fill="#046C9F" width="4.823" height="3.78"/>
	<rect x="1502.12" y="117.672" fill="#046C9F" width="4.823" height="3.781"/>
	<rect x="1502.12" y="122.417" fill="#046C9F" width="4.823" height="3.78"/>
	<rect x="1490.459" y="100.269" fill="#046C9F" width="4.823" height="3.782"/>
	<rect x="1490.459" y="105.015" fill="#046C9F" width="4.823" height="3.78"/>
	<rect x="1490.459" y="120.516" fill="#046C9F" width="4.823" height="5.998"/>
	<rect x="1536.186" y="96.926" fill="#046C9F" width="3.604" height="4.604"/>
	<rect x="1536.186" y="102.56" fill="#046C9F" width="3.604" height="4.604"/>
	<rect x="1541.13" y="96.926" fill="#046C9F" width="3.604" height="4.604"/>
	<rect x="1541.13" y="102.56" fill="#046C9F" width="3.604" height="4.604"/>
	<rect x="1585.591" y="134.76" fill="#046C9F" width="5.105" height="11.666"/>
	<rect x="1488.004" y="137.239" fill="#046C9F" width="3.618" height="12.381"/>
	<rect x="1492.871" y="137.239" fill="#046C9F" width="3.618" height="12.381"/>
	<polygon fill="#046C9F" points="1556.957,146.426 1553.877,146.426 1552.679,143.763 1552.679,133.429 1556.957,133.429 	"/>
	<polygon fill="#046C9F" points="1459.649,149.38 1462.729,149.38 1463.927,147.165 1463.927,138.571 1459.649,138.571 	"/>
	<polygon fill="#046C9F" points="1523.417,146.718 1526.498,146.718 1527.695,144.504 1527.695,135.908 1523.417,135.908 	"/>
	<path fill="#046C9F" d="M1528.371,134.879c0-1.391-1.127-2.518-2.518-2.518c-1.389,0-2.517,1.127-2.517,2.518H1528.371z"/>
	<path fill="#046C9F" d="M1590.66,133.811c0-1.391-1.127-2.519-2.518-2.519c-1.39,0-2.519,1.128-2.519,2.519H1590.66z"/>
</g>
</svg>
